<?xml version="1.0" encoding="UTF-8"?>
<svg id="Logo" xmlns="http://www.w3.org/2000/svg" viewBox="0 0 700 700">
  <defs>
    <style>
      .cls-1 {
        fill: none;
      }

      .cls-2 {
        fill: #fff;
      }
    </style>
  </defs>
  <g id="Logo-2" data-name="Logo">
    <path id="Initiator" class="cls-2" d="M700,350C700,156.70028,543.29972,0,350,0S0,156.70028,0,350c0,164.14248,113.00164,301.87107,265.44791,339.6932v-232.73821h-72.17297v-106.95499h72.17297v-46.08627c0-119.12869,53.91222-174.34529,170.86708-174.34529,22.17347,0,60.43387,4.34774,76.08578,8.69548v96.95513c-8.26072-.86953-22.60833-1.3043-40.43423-1.3043-57.39043,0-79.56407,21.73879-79.56407,78.25978v37.82546h114.3226l-19.6405,106.95499h-94.68209v240.48162c173.30007-20.93173,307.59753-168.49142,307.59753-347.43661Z"/>
    <path id="F" class="cls-1" d="M487.08456,456.95499l19.6405-106.95499h-114.3226v-37.82546c0-56.52098,22.17365-78.25978,79.56407-78.25978,17.8259,0,32.17351.43477,40.43423,1.3043v-96.95513c-15.6519-4.34774-53.9123-8.69548-76.08578-8.69548-116.95486,0-170.86708,55.2166-170.86708,174.34529v46.08627h-72.17297v106.95499h72.17297v232.73821c27.07954,6.71844,55.39493,10.3068,84.55209,10.3068,14.35444,0,28.5009-.88431,42.40247-2.56339v-240.48162h94.68209Z"/>
  </g>
</svg>