<?xml version="1.0" encoding="UTF-8"?>
<svg id="_レイヤー_1" xmlns="http://www.w3.org/2000/svg" version="1.1" viewBox="0 0 494.8 509.7">
  <!-- Generator: Adobe Illustrator 29.7.1, SVG Export Plug-In . SVG Version: 2.1.1 Build 8)  -->
  <defs>
    <style>
      .st0, .st1, .st2 {
        fill: none;
      }

      .st3 {
        font-size: 29.4px;
      }

      .st3, .st4, .st5, .st6, .st7, .st8, .st9, .st10, .st11, .st12, .st13, .st14, .st15 {
        fill: #fff;
      }

      .st3, .st4, .st5, .st6, .st7, .st8, .st10, .st11, .st12, .st13, .st14, .st15 {
        font-family: 'LINESeedJPApp_TTF-ExtraBold', 'LINE Seed JP App_TTF';
        font-weight: 700;
      }

      .st4 {
        font-size: 56.6px;
      }

      .st5 {
        font-size: 26.6px;
      }

      .st1 {
        stroke-width: 5px;
      }

      .st1, .st2 {
        stroke: #fff;
        stroke-miterlimit: 10;
      }

      .st2 {
        stroke-width: 6px;
      }

      .st6 {
        font-size: 25.2px;
      }

      .st7 {
        font-size: 41px;
      }

      .st8 {
        font-size: 47.3px;
      }

      .st10 {
        font-size: 21.9px;
      }

      .st11 {
        font-size: 38.2px;
      }

      .st12 {
        font-size: 33.1px;
      }

      .st13 {
        font-size: 32.7px;
      }

      .st14 {
        font-size: 39.1px;
      }

      .st15 {
        font-size: 61.9px;
      }
    </style>
  </defs>
  <g id="_レイヤー_2-2">
    <rect class="st0" x="857.9" y="-69.5" width="494.8" height="608.8"/>
    <rect class="st0" x="857.9" y="-69.5" width="494.8" height="608.8"/>
    <rect class="st0" x="857.9" y="-69.5" width="494.8" height="608.8"/>
    <path class="st9" d="M1085,124.4v-.3h.2c0-.2.2-.2.3-.2l6.3,3.7h0l-1.2-7.2s0-.2,0-.2h.2c0-.2.2-.2.3,0l6.7,6.8c0,0,0,.3,0,.4l-1.1.7h-.3l-3.7-3.9h0l1.1,5.9s0,.2,0,.3h-.2c0,.2-.2.2-.3.1l-5.2-3.1h0l2.4,4.8v.3l-1,.7c0,.1-.3,0-.4-.1l-4-8.7h-.1Z"/>
    <path class="st9" d="M1096.4,122.4c0,0,0-.3,0-.4l1.1-.5h.3l2.6,2.3h0v-3.5c0-.1,0-.2.2-.3l1-.5c.2,0,.4,0,.4.2v10.2s0,.2,0,.2l-1.1.5c-.2,0-.4,0-.4-.2v-4.7l-4.1-3.4h0Z"/>
    <path class="st9" d="M1105.7,113.7c0,0,0-.3.2-.3h.3l7.1,4.6h0l-1.4-5.6c0,0,0-.3.2-.3l1.2-.3c0,0,.3,0,.3.2l2.2,9.2c0,0,0,.3-.2.3h-.3l-7.2-4.8h0l1.4,5.9c0,0,0,.3-.2.3l-1.2.3c0,0-.3,0-.3-.2l-2.2-9.2h0Z"/>
    <path class="st9" d="M1119.3,117.3h1c0-.7-.3-.9-.8-.9s-1.2.2-1.5.4c-.2,0-.3,0-.4-.2l-.2-.7c0-.2,0-.3.2-.4,0,0,1-.4,1.9-.5,1.7-.2,2.2.7,2.4,2.2l.3,3c0,0,0,.3-.2.3h-.5c0,0-.2,0-.3,0l-.2-.4c-.3.3-.8.8-1.6.9-1.1,0-2-.5-2.1-1.7,0-1,.6-1.8,2-2M1119.6,119.7c.5,0,.8-.5.9-.6v-.8s-.5,0-.9,0c-.5,0-.9.4-.8.9,0,.4.4.7.8.6"/>
    <path class="st9" d="M1123.6,115c0,0,0-.3.3-.3h.5c0,0,.2,0,.2.2l.2.5c.2-.3.9-.8,1.9-.8s1.4.3,1.8.9c.2-.2,1-.9,2-.8,1.8,0,2.4,1.4,2.4,2.8v2.7c0,0,0,.3-.3.3h-1.1c0,0-.3-.2-.3-.3v-2.8c0-.7-.3-1.2-1-1.2s-1.2.6-1.2.6v3.4c0,0-.2.3-.3.3h-1c0,0-.3,0-.3-.3v-2.8c0-.7-.3-1.2-1-1.2s-1,.5-1.2.9v3.1c0,0-.2.3-.3.3h-1.1c0,0-.3-.2-.3-.3v-5.1h.1Z"/>
    <path class="st9" d="M1137.3,115.3c1.4.2,2.5,1.4,2.2,2.9v.4c0,0-.2.2-.3.2l-3.5-.5c0,.6.4,1.3,1.2,1.4.4,0,.9,0,1.1-.2h.4l.5.7v.4c-.5.4-1.3.6-2.2.5-1.7-.2-2.7-1.7-2.5-3.3s1.6-2.8,3.2-2.5M1138,117.7c0-.5-.4-1-.9-1.1-.5,0-1.1.3-1.2.8l2.1.3h0Z"/>
    <path class="st9" d="M1144.3,117c0,0,.2-.2.3-.2l1.1.3c0,0,.2.2.2.3l-1.2,4.9c0,0-.2.2-.3.2l-1.1-.3c0,0-.2-.2-.2-.3l1.2-4.9h0ZM1145,113.9c0-.5.6-.8,1.1-.7s.9.6.7,1.2-.6.8-1.2.7c-.5,0-.8-.6-.7-1.2"/>
    <path class="st9" d="M1146.1,122.3l.6-.6c0,0,.2,0,.3,0,0,0,.5.5,1.1.7.3,0,.5,0,.6-.2,0-.2,0-.4-.7-.9-.9-.7-1.2-1.4-1-2.2s1.1-1.4,2.5-1c.8.2,1.3.6,1.5.9,0,0,0,.3,0,.4l-.5.6c0,0-.3,0-.4,0,0,0-.5-.5-1-.6-.3,0-.5,0-.5.2s0,.4.6.8c.9.7,1.5,1.4,1.2,2.4-.3.9-1.3,1.4-2.6,1-.9-.3-1.4-.7-1.6-1v-.3"/>
    <path class="st2" d="M1201.5,158.8c-3.4,26-35.9,43.2-72.6,38.4-36.8-4.8-63.8-29.7-60.5-55.6,3.4-26,35.9-43.2,72.6-38.4s63.8,29.7,60.5,55.6h0Z"/>
    <path class="st9" d="M1327,174.4c0-246.5-299.3-219-357-132.2-57.7,86.8-38,148.7-39.8,176.3s-37.1,45.6-37.1,45.6c-29.9,7.6,20.4,45.1,20.4,45.1-4.2,9.9-14,20.1,0,24.9,9.2,3.2,18.4,6.3,27.7,9.5,2.4.8,9.4,4.5,9.9,8.1.5,3.5-12.7,10.1-12.7,10.1-4.5,3.5-7.8,3.5-11,8.3-2.2,3.3,2.9,4.6,6.8,9.4,3.1,3.8,16.3,21,26.3,30.8,8.8,8.5,23.1,17.3,30.2,19.9,5.6,2,18.9,3.1,24.6-.8,3.2-2.2,5.7-6.1,8.3-9,4.8-5.2,13.8-15.7,22-13.8,8.2,1.9,0,10.7-1.9,25.6-3,22.6-1.5,54.7,1.3,56.6,3.1,2.3,188.5-.4,194.9-1-3.6-10-4.4-21.3-5.6-31.8-1.3-11.3-1.7-22.8-1.5-34.2.3-17.4,1.9-34.7,4.7-51.8.5-3.2,1-6.4,1.7-9.6,0,0,88-46.5,88-186.1M960.3,255.4c-4.8,0-8.7-9-8.7-20.2s3.9-20.2,8.7-20.2,8.7,9,8.7,20.2-3.9,20.2-8.7,20.2M1086,278.1c-85.5-37.8-129.1-126.7-97.3-198.6,31.8-71.9,126.8-99.4,212.3-61.7,85.5,37.8,129.1,126.7,97.3,198.6s-126.8,99.5-212.3,61.7h0Z"/>
  </g>
  <text class="st3" transform="translate(1077.2 163.7)"><tspan x="0" y="0">かなやん</tspan></text>
  <text class="st4" transform="translate(988.4 99.5)"><tspan x="0" y="0">コカコーラ</tspan></text>
  <text class="st8" transform="translate(1052.1 49.9)"><tspan x="0" y="0">1日1本</tspan></text>
  <text class="st5" transform="translate(1199.1 145.3) rotate(-14.6)"><tspan x="0" y="0">えいぞう</tspan></text>
  <text class="st7" transform="translate(1202.1 179) rotate(-3.6)"><tspan x="0" y="0">Web</tspan></text>
  <text class="st6" transform="translate(1192.1 193.2) rotate(13.9)"><tspan x="0" y="0">Blender</tspan></text>
  <text class="st11" transform="translate(1108.3 230.5) rotate(8.5)"><tspan x="0" y="0">ぷーさん</tspan></text>
  <text class="st14" transform="translate(1080.1 284.8) rotate(-2.1)"><tspan x="0" y="0">きょうと</tspan></text>
  <text class="st13" transform="translate(969.2 130.7) rotate(12.8)"><tspan x="0" y="0">そしな</tspan></text>
  <text class="st12" transform="translate(968.9 171.8) rotate(4.4)"><tspan x="0" y="0">マクド</tspan></text>
  <text class="st10" transform="translate(1045.9 227.1) rotate(33.3)"><tspan x="0" y="0">オム</tspan><tspan x="0" y="20.5">ライス</tspan></text>
  <text class="st15" transform="translate(1000.2 233.8) rotate(-4.6)"><tspan x="0" y="0">すし</tspan></text>
  <line class="st1" x1="981.6" y1="100.8" x2="1077.2" y2="122.5"/>
  <line class="st1" x1="1288.7" y1="91.3" x2="1188.2" y2="122.5"/>
  <line class="st1" x1="1290.1" y1="236.3" x2="1177.5" y2="190.6"/>
  <line class="st1" x1="1084.1" y1="287.9" x2="1124.6" y2="198"/>
  <g>
    <g id="_レイヤー_2-21" data-name="_レイヤー_2-2">
      <rect class="st0" x="0" y="-49.5" width="494.8" height="608.8"/>
      <rect class="st0" x="0" y="-49.5" width="494.8" height="608.8"/>
      <rect class="st0" x="0" y="-49.5" width="494.8" height="608.8"/>
      <path class="st9" d="M227.1,144.4v-.3h.2c0-.2.2-.2.3-.2l6.3,3.7h0l-1.2-7.2s0-.2,0-.2h.2c0-.2.2-.2.3,0l6.7,6.8c0,0,0,.3,0,.4l-1.1.7h-.3l-3.7-3.9h0l1.1,5.9s0,.2,0,.3h-.2c0,.2-.2.2-.3.1l-5.2-3.1h0l2.4,4.8v.3l-1,.7c0,.1-.3,0-.4-.1l-4-8.7h-.1Z"/>
      <path class="st9" d="M238.5,142.4c0,0,0-.3,0-.4l1.1-.5h.3l2.6,2.3h0v-3.5c0-.1,0-.2.2-.3l1-.5c.2,0,.4,0,.4.2v10.2s0,.2,0,.2l-1.1.5c-.2,0-.4,0-.4-.2v-4.7l-4.1-3.4h0Z"/>
      <path class="st9" d="M247.8,133.7c0,0,0-.3.2-.3h.3l7.1,4.6h0l-1.4-5.6c0,0,0-.3.2-.3l1.2-.3c0,0,.3,0,.3.2l2.2,9.2c0,0,0,.3-.2.3h-.3l-7.2-4.8h0l1.4,5.9c0,0,0,.3-.2.3l-1.2.3c0,0-.3,0-.3-.2l-2.2-9.2h0Z"/>
      <path class="st9" d="M261.4,137.3h1c0-.7-.3-.9-.8-.9s-1.2.2-1.5.4c-.2,0-.3,0-.4-.2l-.2-.7c0-.2,0-.3.2-.4,0,0,1-.4,1.9-.5,1.7-.2,2.2.7,2.4,2.2l.3,3c0,0,0,.3-.2.3h-.5c0,0-.2,0-.3,0l-.2-.4c-.3.3-.8.8-1.6.9-1.1,0-2-.5-2.1-1.7,0-1,.6-1.8,2-2M261.7,139.7c.5,0,.8-.5.9-.6v-.8s-.5,0-.9,0c-.5,0-.9.4-.8.9,0,.4.4.7.8.6"/>
      <path class="st9" d="M265.7,135c0,0,0-.3.3-.3h.5c0,0,.2,0,.2.2l.2.5c.2-.3.9-.8,1.9-.8s1.4.3,1.8.9c.2-.2,1-.9,2-.8,1.8,0,2.4,1.4,2.4,2.8v2.7c0,0,0,.3-.3.3h-1.1c0,0-.3-.2-.3-.3v-2.8c0-.7-.3-1.2-1-1.2s-1.2.6-1.2.6v3.4c0,0-.2.3-.3.3h-1c0,0-.3,0-.3-.3v-2.8c0-.7-.3-1.2-1-1.2s-1,.5-1.2.9v3.1c0,0-.2.3-.3.3h-1.1c0,0-.3-.2-.3-.3v-5.1h.1Z"/>
      <path class="st9" d="M279.4,135.3c1.4.2,2.5,1.4,2.2,2.9v.4c0,0-.2.2-.3.2l-3.5-.5c0,.6.4,1.3,1.2,1.4.4,0,.9,0,1.1-.2h.4l.5.7v.4c-.5.4-1.3.6-2.2.5-1.7-.2-2.7-1.7-2.5-3.3s1.6-2.8,3.2-2.5M280.1,137.7c0-.5-.4-1-.9-1.1-.5,0-1.1.3-1.2.8l2.1.3h0Z"/>
      <path class="st9" d="M286.4,137c0,0,.2-.2.3-.2l1.1.3c0,0,.2.2.2.3l-1.2,4.9c0,0-.2.2-.3.2l-1.1-.3c0,0-.2-.2-.2-.3l1.2-4.9h0ZM287.1,133.9c0-.5.6-.8,1.1-.7s.9.6.7,1.2-.6.8-1.2.7c-.5,0-.8-.6-.7-1.2"/>
      <path class="st9" d="M288.2,142.3l.6-.6c0,0,.2,0,.3,0,0,0,.5.5,1.1.7.3,0,.5,0,.6-.2,0-.2,0-.4-.7-.9-.9-.7-1.2-1.4-1-2.2s1.1-1.4,2.5-1c.8.2,1.3.6,1.5.9,0,0,0,.3,0,.4l-.5.6c0,0-.3,0-.4,0,0,0-.5-.5-1-.6-.3,0-.5,0-.5.2s0,.4.6.8c.9.7,1.5,1.4,1.2,2.4-.3.9-1.3,1.4-2.6,1-.9-.3-1.4-.7-1.6-1v-.3"/>
      <path class="st2" d="M343.6,178.8c-3.4,26-35.9,43.2-72.6,38.4-36.8-4.8-63.8-29.7-60.5-55.6,3.4-26,35.9-43.2,72.6-38.4s63.8,29.7,60.5,55.6h0Z"/>
      <path class="st9" d="M469.1,194.4C469.1-52.1,169.8-24.6,112.1,62.2c-57.7,86.8-38,148.7-39.8,176.3s-37.1,45.6-37.1,45.6c-29.9,7.6,20.4,45.1,20.4,45.1-4.2,9.9-14,20.1,0,24.9,9.2,3.2,18.4,6.3,27.7,9.5,2.4.8,9.4,4.5,9.9,8.1.5,3.5-12.7,10.1-12.7,10.1-4.5,3.5-7.8,3.5-11,8.3-2.2,3.3,2.9,4.6,6.8,9.4,3.1,3.8,16.3,21,26.3,30.8,8.8,8.5,23.1,17.3,30.2,19.9,5.6,2,18.9,3.1,24.6-.8,3.2-2.2,5.7-6.1,8.3-9,4.8-5.2,13.8-15.7,22-13.8,8.2,1.9,0,10.7-1.9,25.6-3,22.6-1.5,54.7,1.3,56.6,3.1,2.3,188.5-.4,194.9-1-3.6-10-4.4-21.3-5.6-31.8-1.3-11.3-1.7-22.8-1.5-34.2.3-17.4,1.9-34.7,4.7-51.8.5-3.2,1-6.4,1.7-9.6,0,0,88-46.5,88-186.1M102.4,275.4c-4.8,0-8.7-9-8.7-20.2s3.9-20.2,8.7-20.2,8.7,9,8.7,20.2-3.9,20.2-8.7,20.2M228.1,298.1c-85.5-37.8-129.1-126.7-97.3-198.6C162.6,27.6,257.6,0,343.1,37.8c85.5,37.8,129.1,126.7,97.3,198.6s-126.8,99.5-212.3,61.7h0Z"/>
    </g>
    <g>
      <path class="st9" d="M233.7,184.9c-.3,0-.6,0-1,0-.3,0-.7,0-1,0-.3,0-.5-.2-.6-.5l-1.1-4.3c-.1-.5,0-.7.6-.6.8.2,1.6.3,2.3.3,1.5,0,2.4-.6,2.8-1.8.1-.4.2-.8.3-1.2,0-.5.1-1,.2-1.5s0-1,0-1.5,0-.9,0-1.2c0-.5,0-.8-.1-1.1,0-.3-.1-.5-.3-.7-.1-.2-.3-.3-.5-.3-.2,0-.4,0-.7,0h-1.9c-.6,2.4-1.4,4.9-2.2,7.3-.9,2.4-1.8,4.8-2.9,7-.2.3-.4.4-.7.3l-4-1.3c-.4-.1-.5-.4-.3-.7,1.1-2.3,2-4.5,2.8-6.5s1.4-4,1.9-5.9c-.6,0-1.3,0-2,.1-.7,0-1.3.1-2,.2-.4,0-.6-.2-.6-.5l-.2-4.1c0-.4.1-.6.5-.6.8,0,1.6,0,2.6,0,.9,0,1.9,0,2.9,0,.2-.9.3-1.7.5-2.6.1-.9.3-1.7.4-2.6,0-.4.3-.5.6-.5l4.2.4c.4,0,.6.2.5.5,0,.7-.2,1.5-.4,2.3-.1.8-.3,1.6-.5,2.4h1.2c.4,0,.7,0,1,0,.9,0,1.7.2,2.3.4.6.2,1.2.6,1.6,1,.4.5.7,1,.9,1.7.2.7.4,1.5.4,2.5,0,.6,0,1.3,0,2.1s0,1.6,0,2.4-.1,1.5-.2,2.3-.2,1.3-.3,1.7c-.5,1.9-1.4,3.3-2.5,4.1s-2.7,1.2-4.6,1.2ZM244.5,175.7c-.4.2-.6,0-.6-.4-.2-1.8-.6-3.5-1.1-5.1s-1.3-3.2-2.2-4.7c0-.1,0-.2,0-.3,0-.2.1-.3.4-.4l3.7-1.3c.3-.1.6,0,.7.3.9,1.6,1.7,3.2,2.4,4.8s1.1,3.2,1.3,4.9c0,.3,0,.6-.4.7l-4,1.5Z"/>
      <path class="st9" d="M251.5,180c-.3,0-.4-.2-.4-.4s0-.3.1-.4c1.1-1.7,2.1-3.5,3-5.3.9-1.8,1.7-3.7,2.3-5.7h-3.7c-.4,0-.6-.2-.6-.6v-3.7c0-.4.2-.6.6-.6h4.8c.1-.5.2-1.1.3-1.6.1-.5.2-1.1.3-1.7,0-.4.3-.5.6-.5l4.3.3c.4,0,.5.2.5.6-.2,1-.4,2-.6,2.9h3c.4,0,.6.2.6.6v3.7c0,.4-.2.6-.6.6h-4.1c-.7,2.3-1.6,4.5-2.6,6.6-1,2.1-2,4.1-3.1,6.1-.1.3-.4.4-.7.3l-4-1.2ZM264.5,185.4c-1.1,0-2.1-.2-3.1-.6-1-.4-1.8-.9-2.3-1.7-.3-.4-.5-.9-.7-1.3s-.2-1-.2-1.5c0-.8.2-1.7.6-2.4.4-.8.9-1.5,1.7-2,.6-.5,1.3-.8,2-1,.7-.2,1.5-.3,2.3-.3s.6,0,.8,0c.3,0,.6,0,.9.1,0-.7,0-1.5,0-2.3s0-1.6,0-2.4c0-.4.2-.5.6-.5h3.8c.4,0,.6.2.6.6,0,1,0,2,0,3.1v3.2c1,.5,2,1,2.9,1.7.9.6,1.8,1.3,2.5,2,.1.1.2.2.2.4s0,.2-.2.4l-3,3.2c-.1.1-.2.2-.4.2s-.3,0-.4-.2c-.7-.8-1.3-1.6-2.1-2.2-.3.6-.6,1.2-1.1,1.7s-1,.9-1.6,1.1-1.2.5-1.9.6c-.7.1-1.3.2-2,.2ZM264.5,181.2c.8,0,1.3-.2,1.6-.6.3-.4.4-1,.5-1.7-.7-.3-1.3-.4-1.9-.4s-1.2.1-1.6.4c-.3.2-.5.5-.5.9s.1.6.3.8c.2.2.4.3.7.4.3,0,.6.1.9.1ZM275,170.2c0,0-.2,0-.4-.1-.9-.6-2-1.1-3.1-1.5-1.2-.4-2.5-.6-3.9-.9-.4,0-.5-.3-.4-.7l.9-3.4c0-.3.3-.5.7-.4.7,0,1.5.2,2.3.3.8.1,1.6.3,2.3.5.8.2,1.5.4,2.2.7.7.3,1.4.6,1.9.9.2.1.3.3.3.4s0,.2,0,.3l-2.2,3.6c-.1.2-.3.3-.4.3Z"/>
      <path class="st9" d="M290.3,185.9c-.4,0-.6,0-.7-.4-.2-.9-.4-1.9-.7-3-.3-1.1-.6-2.3-.9-3.5-.3-1.2-.6-2.4-.9-3.7-.3-1.2-.6-2.4-.9-3.4-.7.3-1.3.5-2,.8s-1.2.5-1.7.7c-.4.2-.6,0-.7-.3l-1.5-4.3c-.1-.4,0-.6.3-.7.6-.2,1.2-.4,1.9-.7s1.4-.5,2.2-.7c-.2-.8-.5-1.6-.7-2.4-.2-.8-.4-1.5-.7-2.2-.1-.4,0-.6.4-.7l4.4-1c.4,0,.6,0,.7.4.2.7.5,1.4.7,2.1.2.7.4,1.4.6,2.1.5-.1,1-.3,1.5-.4.5-.1,1-.2,1.5-.4-.2-.6-.3-1.1-.5-1.7-.2-.6-.4-1.2-.6-1.8-.2-.4,0-.6.4-.7l4.3-.9c.4,0,.6,0,.7.4.2.7.4,1.4.6,2,.2.7.4,1.3.5,2,.5,0,1,0,1.5,0,1.1.2,2.1.5,3,.9.8.4,1.5,1,2.1,1.6s1,1.3,1.2,2.1c.3.8.4,1.6.4,2.4s0,1.3-.3,2c-.2.7-.5,1.3-.9,1.9-.4.6-.9,1.1-1.4,1.7-.6.5-1.2.9-2,1.3-.6.3-1.3.6-2.1.7-.8.2-1.6.2-2.6.2s-1.4,0-2.2-.2c-.3,0-.5-.2-.6-.5l-1-4.3c0-.2,0-.4,0-.5,0,0,.3-.1.5,0,.6,0,1.1.2,1.6.2.5,0,.9,0,1.3,0,1,0,1.8-.2,2.5-.5.4-.2.8-.5,1-.9.2-.4.4-.8.4-1.1s-.2-.9-.5-1.3c-.4-.4-1-.6-1.8-.7-.9-.1-2.1,0-3.4.2-1.3.3-2.8.7-4.2,1.2.7,2.4,1.4,4.9,2,7.3s1.3,4.7,1.8,7c0,.4,0,.6-.4.7l-4.5,1Z"/>
      <path class="st9" d="M324.9,185.3c-.7,0-1.3,0-2-.3-.6-.2-1.2-.5-1.7-.9-.5-.4-1-1-1.3-1.6-.4-.6-.6-1.4-.8-2.3,0-.3,0-.7-.1-1.2,0-.5,0-1,0-1.5,0-.5-.1-.8-.3-1.1-.2-.2-.4-.4-.7-.4-.5,0-1,.3-1.7,1-.6.6-1.2,1.6-1.7,3-.3.9-.6,1.7-.9,2.6s-.5,1.6-.8,2.4c-.1.4-.4.5-.7.4l-4.5-1.5c-.3-.1-.4-.4-.3-.7.6-1.6,1.3-3.4,2-5.4.8-2,1.5-4,2.3-6.1.8-2.1,1.5-4.1,2.3-6,.7-2,1.4-3.7,1.9-5.3.1-.4.4-.5.7-.4l4.6,1.4c.4.1.5.4.3.7-.3.8-.7,1.6-1.1,2.4-.4.9-.8,1.7-1.1,2.6-.4.9-.8,1.7-1.1,2.6-.4.8-.7,1.6-1,2.4.8-.4,1.6-.6,2.4-.6s1,0,1.4.2c.5.2.9.4,1.2.8.4.4.7.8.9,1.4.3.5.4,1.2.5,2,0,.4,0,.8,0,1.2,0,.4,0,.8,0,1.2,0,.6.2,1,.4,1.3s.5.4.8.4c.6,0,1.2-.4,1.7-1.2.3-.5.6-1.3.9-2.4.3-1.1.5-2.4.6-3.7,0-.2,0-.4.2-.4.1,0,.3,0,.5,0l4.3,1.8c.3.1.4.4.4.7-.3,1.9-.6,3.5-1.1,4.8s-1.1,2.5-1.9,3.4c-.7.8-1.6,1.5-2.6,2-1,.5-2.1.7-3.1.7Z"/>
    </g>
    <g>
      <path class="st9" d="M143.5,119.2c-.7,0-1.1-.4-1.1-1.1v-8.2c0-.7.4-1.1,1.1-1.1h30.7v-20.4h-30.3c-.7,0-1.1-.4-1.1-1.1v-8.1c0-.7.4-1.1,1.1-1.1h40.3c.7,0,1.1.4,1.1,1.1v38.8c0,.7-.4,1.1-1.1,1.1h-40.8Z"/>
      <path class="st9" d="M201.4,121.9c-.3,0-.5-.1-.8-.4l-6.7-6.6c-.2-.2-.3-.5-.3-.7,0-.4.2-.6.7-.8,2.5-1.1,4.6-2.3,6.5-3.8,1.8-1.5,3.4-3.2,4.6-5,1.3-1.9,2.3-3.9,3.1-6.1.8-2.2,1.4-4.5,1.8-6.9h-12.2c-.7,0-1.1-.4-1.1-1.1v-7.4c0-.7.4-1.1,1.1-1.1h13.1c0-1.2.1-2.5.1-3.7s0-2.5,0-3.8c0-.7.3-1.1,1-1.1h8.4c.7,0,1.1.4,1.1,1.1,0,1.3,0,2.6,0,3.8,0,1.3,0,2.5-.2,3.7h17.8c.7,0,1.1.4,1.1,1.1v5.8c0,2.1,0,4.2,0,6.3,0,2.1,0,4.2-.2,6.2-.1,2-.3,3.8-.5,5.4-.7,4.9-2.4,8.6-5.1,10.9-2.7,2.3-6.6,3.5-11.7,3.5s-1.4,0-2.2,0c-.7,0-1.5,0-2.3-.2-.6,0-1-.4-1.1-1l-1.6-8.3c-.2-.8.2-1.2,1.1-1.1,1,.2,1.9.3,2.7.3s1.6,0,2.3,0c1.2,0,2.3-.1,3.2-.4.9-.2,1.6-.6,2.2-1.2.6-.5,1.1-1.2,1.4-2,.4-.8.7-1.8.9-3,.2-.8.3-1.7.4-2.7,0-1,.2-2.1.2-3.3,0-1.1,0-2.3,0-3.5,0-1.2,0-2.3-.1-3.4h-9.2c-.5,3.1-1.1,6.1-2,9-.9,2.9-2,5.6-3.5,8.1-1.5,2.5-3.2,4.9-5.4,7-2.1,2.2-4.7,4.1-7.7,5.9-.2.2-.4.2-.7.2Z"/>
      <path class="st9" d="M251.6,119.2c-.7,0-1.1-.4-1.1-1.1v-8.2c0-.7.4-1.1,1.1-1.1h30.7v-20.4h-30.3c-.7,0-1.1-.4-1.1-1.1v-8.1c0-.7.4-1.1,1.1-1.1h40.3c.7,0,1.1.4,1.1,1.1v38.8c0,.7-.4,1.1-1.1,1.1h-40.8Z"/>
      <path class="st9" d="M305.5,103.7c-.7,0-1.1-.4-1.1-1.1v-9.5c0-.7.4-1.1,1.1-1.1h43.4c.7,0,1.1.4,1.1,1.1v9.5c0,.7-.4,1.1-1.1,1.1h-43.4Z"/>
      <path class="st9" d="M369.9,123c-.6,0-1-.2-1.3-.7l-4.8-8.3c-.1-.2-.2-.4-.2-.6,0-.5.3-.7,1-.7,3.6-.1,6.9-.5,9.9-1.2,3-.7,5.6-1.7,7.8-2.9,2.2-1.2,4-2.7,5.5-4.4s2.3-3.5,2.8-5.5c-2.3,0-4.7,0-7.2,0-2.5,0-5.2,0-7.8.1-2.7,0-5.3,0-8,.1-2.7,0-5.3,0-7.8.1-.7,0-1.1-.4-1.1-1.1v-7.9c0-.7.4-1.1,1.1-1.1h42.1c.7,0,1.1.4,1.1,1.1,0,4.9-.8,9.2-2.3,13.1-1.5,3.9-3.6,7.2-6.4,10.1-2.8,2.8-6.2,5.1-10.3,6.7-4.1,1.7-8.8,2.7-14,3.1ZM363.8,84.9c-.7,0-1.1-.4-1.1-1.1v-7.5c0-.8.4-1.1,1.1-1.1h33.9c.7,0,1.1.3,1.1,1v7.6c0,.7-.4,1.1-1.1,1.1h-33.9Z"/>
    </g>
    <g>
      <path class="st9" d="M207.2,71.8c-.5,0-.8-.3-.8-.9v-25.8l-6.6,2.1c0,0-.2,0-.3,0-.3,0-.6-.2-.7-.5l-1.3-2.6c0-.2,0-.3,0-.5,0-.3.1-.5.3-.7l10.8-9.4c.3-.3.6-.4,1-.4h5.8c.6,0,.9.3.9.9v36.8c0,.6-.3.9-.9.9h-8.1Z"/>
      <path class="st9" d="M224.4,72.6c-.5,0-.8-.3-.8-.8V31.9c0-.5.3-.8.8-.8h35.1c.5,0,.8.3.8.8v40c0,.5-.3.8-.8.8h-35.1ZM251.5,47.3v-8h-19.1v8h19.1ZM251.5,64.3v-8.8h-19.1v8.8h19.1Z"/>
      <path class="st9" d="M273.8,71.8c-.5,0-.8-.3-.8-.9v-25.8l-6.6,2.1c0,0-.2,0-.3,0-.3,0-.6-.2-.7-.5l-1.3-2.6c0-.2,0-.3,0-.5,0-.3.1-.5.3-.7l10.8-9.4c.3-.3.6-.4,1-.4h5.8c.6,0,.9.3.9.9v36.8c0,.6-.3.9-.9.9h-8.1Z"/>
      <path class="st9" d="M307.1,74.1c-.5,0-.8-.3-.8-.8v-5.7c0,0-6.8,0-6.8,0-.5,0-.8-.3-.8-.8v-3.6c-.8.9-1.6,1.8-2.5,2.7-.8.8-1.7,1.6-2.5,2.3-.2.1-.3.2-.5.2-.3,0-.4-.1-.6-.3l-4.5-6.6c0-.2-.1-.3-.1-.5,0-.3.1-.4.3-.6,2.8-1.9,5.3-4.2,7.5-7,2.3-2.7,4.2-5.6,5.7-8.6h-10.9c-.5,0-.8-.3-.8-.8v-6.4c0-.5.3-.8.8-.8h15.5v-6.7c0-.5.3-.8.8-.8h7.5c.5,0,.8.3.8.8v6.7h15.7c.5,0,.8.3.8.8v6.4c0,.5-.3.8-.8.8h-11.1c1.8,3.1,3.9,5.9,6.2,8.5,2.3,2.6,4.8,5,7.3,7,.2.2.3.4.3.6s0,.3-.2.5l-4.4,6.6c-.2.3-.3.4-.6.4s-.3,0-.5-.2c-.8-.7-1.6-1.5-2.5-2.4-.8-.9-1.7-1.8-2.5-2.7v3.7c0,.5-.3.8-.8.8h-7.1v5.7c0,.5-.2.8-.7.8h-7.5ZM306.5,59.9l.2-9c-.7,1.5-1.5,3.1-2.4,4.6-.9,1.5-1.8,3-2.9,4.4h5.1ZM320.4,59.9c-1.1-1.5-2.1-3-3.1-4.6s-1.8-3.1-2.5-4.8l.2,9.3h5.3Z"/>
    </g>
    <g>
      <path class="st9" d="M364.4,161.4c-.4.1-.8.2-1.2.2-.4,0-.7.1-1.1.2-1.4.2-2.6,0-3.5-.5-.9-.5-1.6-1.3-2-2.5-.3-.6-.6-1-.9-1.2-.4-.2-.7-.3-1-.2-.5.1-.9.4-1.2.9-.6,1-1.2,2.1-1.8,3.1s-1.1,2.1-1.8,3.4c0,.1-.2.2-.3.3,0,0-.2,0-.4,0l-3.7-1.9c-.1,0-.2-.2-.3-.3,0-.1,0-.2,0-.4.8-1.1,1.5-2.2,2.4-3.4.8-1.1,1.6-2.2,2.3-3.3.7-1,1.4-2,1.9-2.9.6-.9,1-1.6,1.3-2.1-1.4.4-2.7.8-4,1.2-1.3.4-2.7.8-4,1.2-.3,0-.5,0-.6-.4l-1-3.5c0-.3,0-.5.4-.6l15.2-4c.3,0,.5,0,.6.4l.8,2.7c0,.3,0,.5-.1.7-.6.7-1.2,1.5-1.8,2.4-.7.9-1.3,1.8-2,2.7.4,0,.8-.1,1.1-.1.4,0,.7.1,1.1.3.3.2.6.4.9.7.3.3.5.7.7,1.1.2.5.5.9.8,1.2.3.3.8.4,1.4.3.6,0,1.2-.2,1.9-.5.6-.3,1.4-.7,2.2-1.1,0,0,.1,0,.2,0,.2,0,.4,0,.5.3h0c0,.1.5,4.1.5,4.1,0,.3,0,.5-.3.6-.5.2-1,.5-1.5.6-.5.2-1,.3-1.5.5ZM358.3,144c-.8.2-1.8.5-2.8.7-1.1.2-2.1.4-3.2.6s-2.1.3-3.1.5c-1,.1-1.9.2-2.6.3-.3,0-.5-.1-.5-.5l-.3-3.3c0-.3,0-.5.4-.5.7,0,1.6-.2,2.6-.3,1-.1,2.1-.3,3.2-.5,1.1-.2,2.2-.4,3.2-.6,1.1-.2,2-.4,2.8-.7.3,0,.5,0,.5.3h0c0,.1.3,3.5.3,3.5,0,.3-.1.5-.4.6Z"/>
      <path class="st9" d="M377.6,156.5c-1,.3-2,.2-3-.2s-2-1-3-2c-1-1-1.8-2.4-2.5-4-.7-1.6-1.3-3.6-1.9-5.8-.5-1.8-.9-3.7-1.4-5.9,0-.4,0-.6.4-.6l4.4-.7c.3,0,.5.1.6.5.3,2.7.7,5,1.3,7.1.4,1.6.9,2.9,1.4,3.9.5,1,1,1.8,1.6,2.2.3.2.5.3.8.2.3,0,.7-.4.9-.9s.5-1.3.7-2.3c0-.3.2-.4.3-.4,0,0,.2,0,.4,0l3.5,2.2c.2,0,.2.2.3.3,0,.1,0,.2,0,.4-.4,1.7-1,3.1-1.8,4.1-.8,1-1.8,1.6-2.8,1.9ZM388.1,150.2c-.3.2-.6,0-.6-.3-.3-1.1-.7-2.2-1.3-3.4-.5-1.1-1.1-2.2-1.8-3.3-.7-1-1.5-2-2.4-2.9-.9-.9-1.9-1.6-3-2.1-.2-.1-.3-.2-.3-.3,0-.1,0-.3.1-.4l2.6-2.8c0,0,.2-.2.3-.2.1,0,.3,0,.4,0,1.1.6,2.2,1.3,3.2,2.2,1,.9,2,1.9,2.9,3,.9,1.1,1.6,2.3,2.3,3.6.7,1.3,1.2,2.7,1.6,4.1,0,.3,0,.5-.3.7l-3.7,1.9Z"/>
      <path class="st9" d="M413.2,148.2c-1.9.5-3.5.7-5,.7-1.4,0-2.6-.2-3.6-.6-1-.4-1.8-.8-2.3-1.5-.6-.6-1-1.3-1.1-2-.2-.7-.2-1.3,0-2,.1-.7.4-1.3.8-1.9-1.2.4-2.4.9-3.5,1.3-1.1.4-2.2.8-3.2,1.3-.3.1-.5,0-.7-.3l-1.2-3.6c-.1-.3,0-.5.4-.7.5-.2,1-.3,1.4-.5.5-.1.9-.3,1.3-.4.6-.4,1.2-.9,1.8-1.4.6-.5,1.2-1,1.7-1.6s1.1-1.1,1.5-1.6c.5-.5.9-1,1.3-1.5-1,.3-2.1.7-3.3,1-1.2.4-2.4.7-3.5,1-.3,0-.5,0-.6-.4l-.9-3.4c0-.3,0-.5.4-.6,1-.2,2.1-.5,3.4-.9s2.5-.7,3.7-1c1.3-.3,2.5-.7,3.7-1,1.2-.3,2.2-.6,3.2-.9.3,0,.6,0,.6.4l.6,2.1c.5.3.9.7,1.4,1.1.5.4.8.9,1.2,1.3.2.3.2.5-.1.7l-1.2.9c-.3.2-.5.2-.7-.1-.4-.6-.9-1.1-1.4-1.6-.7.7-1.4,1.5-2.2,2.3-.8.8-1.5,1.6-2.3,2.3,1.5-.5,3-1.1,4.6-1.7,1.6-.6,3.2-1.1,4.8-1.6.3-.1.5,0,.6.3l1.1,3.3c.1.3,0,.5-.3.6-.8.3-1.7.5-2.5.7-.8.2-1.7.5-2.5.8-.3.1-.6.3-1,.4-.3.1-.6.3-.9.4-.5.3-1,.6-1.4,1-.4.3-.7.7-1,1.1-.3.4-.5.7-.6,1.1-.1.3-.1.7,0,1,0,.3.3.6.6.8.3.2.8.4,1.5.4.6,0,1.5,0,2.4-.1,1-.1,2.1-.4,3.5-.9.3,0,.5,0,.6.3h0c0,.1.3,4,.3,4,0,.3-.1.5-.4.6-.2,0-.4.1-.5.2-.2,0-.3,0-.5.1ZM414.1,130.4c-.3.2-.5.1-.7-.1-.3-.4-.7-.9-1.1-1.3-.4-.4-.9-.8-1.3-1.1-.1-.1-.2-.2-.2-.3,0-.1,0-.3.2-.4l1-.7c.2-.2.5-.2.7,0,.5.3,1,.7,1.5,1.1.5.4.9.9,1.3,1.3.2.3.2.5-.1.7l-1.1.8Z"/>
      <path class="st9" d="M428,144.4c-.3,0-.5,0-.7-.2l-2.6-3.2c-.1-.1-.2-.3-.1-.4,0-.1.2-.2.3-.3,1.5-.5,2.9-1,4.3-1.5,1.4-.6,2.6-1.3,3.6-2.3.6-.6,1.1-1.3,1.3-2,.3-.8.3-1.5.1-2.1-.2-.7-.6-1.2-1.2-1.5-.6-.4-1.5-.4-2.6-.2-1.1.2-2.4.6-3.9,1.3s-3.2,1.6-5,2.7c-.3.2-.5.1-.7-.2l-1.9-3.4c-.2-.3-.1-.5.2-.7,2-1.1,3.9-2,5.7-2.7,1.8-.7,3.4-1.2,4.7-1.5s2.6-.4,3.7-.3c1.1.1,2,.4,2.8.9.8.5,1.5,1,2,1.7.5.7.9,1.5,1.1,2.4.2.7.3,1.5.2,2.3,0,.8-.2,1.6-.4,2.4-.2.8-.6,1.6-1.1,2.3s-1.1,1.5-1.8,2.1c-.9.8-2.1,1.6-3.5,2.4-1.4.8-3,1.4-4.8,2ZM434.1,124.6c-2.2,0-4.3.2-6.3.5s-4,.7-5.9,1.1c-.4,0-.5,0-.6-.4v-3.6c-.2-.3,0-.5.3-.6.9-.2,1.9-.3,3-.5,1-.2,2.1-.3,3.1-.5,1.1-.1,2.1-.3,3.2-.4,1-.1,2-.2,3-.2.4,0,.5.1.5.5l.2,3.6c0,.3-.2.5-.5.5Z"/>
    </g>
    <g>
      <path class="st9" d="M360.7,199.6c-.4,0-.7-.1-.8-.5l-13.7-31.2c0-.2,0-.3,0-.3,0-.4.2-.5.6-.6l8.2-.5c.4,0,.7.1.9.5l7.1,18.3,4.6-19.1c0-.4.3-.6.8-.6l5.6-.3c.4,0,.7.1.8.5l7.4,18.3,4.3-19.1c.1-.4.4-.6.8-.6l8.1-.5c.2,0,.4,0,.6.2.1.2.2.3,0,.6l-9.7,32.7c0,.4-.3.6-.8.6l-5.7.4c-.4,0-.6-.2-.8-.5l-7.1-18.7-4.7,19.4c0,.4-.3.6-.7.6l-5.6.4Z"/>
      <path class="st9" d="M409.5,197.1c-1.9.1-3.7,0-5.3-.6-1.6-.5-3-1.3-4.1-2.3-1.2-1-2.1-2.3-2.8-3.8-.7-1.5-1.1-3.2-1.2-5s0-3.6.6-5.1c.5-1.6,1.3-2.9,2.3-4.1,1-1.2,2.3-2.1,3.8-2.8,1.5-.7,3.2-1.1,5.2-1.2,2-.1,3.8.1,5.4.7,1.6.6,2.9,1.5,4,2.6,1.1,1.2,1.9,2.6,2.5,4.2.6,1.7.9,3.5.9,5.6,0,.5-.3.7-.7.7l-15.5,1c.4,1.2,1,2.1,1.7,2.6.8.6,1.8.8,2.9.8,1.8-.1,3.1-.8,3.9-2,.3-.3.6-.4,1-.4l5.9,1.6c.3.1.5.3.5.5,0,.1,0,.2,0,.4-.5,1.1-1.1,2-1.9,2.8-.8.8-1.6,1.4-2.5,2s-1.9,1-3,1.3c-1.1.3-2.2.5-3.3.6ZM412.5,181.9c-.3-1.2-.8-2.1-1.5-2.7-.7-.6-1.6-.9-2.7-.8-1.1,0-2.1.4-2.7,1.1-.7.7-1.1,1.6-1.3,2.9l8.3-.5Z"/>
      <path class="st9" d="M439.8,195.2c-1.5,0-2.9-.1-4.1-.6-1.2-.5-2.3-1.3-3.3-2.3v2.1c0,.5-.2.8-.7.8l-5.7.4c-.5,0-.8-.2-.8-.7l-2-32.6c0-.5.2-.8.7-.8l6.7-.4c.5,0,.8.2.8.7l.7,11.1c1.6-1.7,3.6-2.6,6.2-2.7,1.7-.1,3.2.1,4.7.6,1.4.5,2.6,1.3,3.7,2.3,1,1,1.9,2.3,2.5,3.8.6,1.5,1,3.2,1.1,5.1.1,1.9,0,3.6-.5,5.2-.4,1.6-1.1,2.9-2,4.1s-2,2.1-3.4,2.8c-1.3.7-2.9,1.1-4.5,1.2ZM437.4,188.1c1.5,0,2.6-.7,3.5-1.7.9-1.1,1.2-2.4,1.1-3.9,0-1.6-.6-2.8-1.6-3.8-1-.9-2.2-1.3-3.7-1.3-1.5,0-2.6.7-3.5,1.7-.9,1-1.2,2.3-1.1,3.9,0,1.6.6,2.8,1.6,3.8,1,.9,2.2,1.4,3.7,1.3Z"/>
    </g>
    <g>
      <path class="st9" d="M336.3,214.8c-.3,0-.4-.2-.3-.5l4.7-19.1c0-.3.2-.4.5-.3l7.4,1.8c1.3.3,2.3.7,3.2,1.2.8.5,1.5,1,1.9,1.6.4.6.7,1.3.8,2,.1.7,0,1.4-.1,2.2-.2.9-.7,1.7-1.3,2.3-.7.6-1.5,1-2.5,1.2,1.2.7,2,1.5,2.4,2.5.4,1,.5,2,.2,3.1-.2.9-.6,1.7-1.1,2.4-.5.6-1.1,1.1-1.9,1.5-.8.3-1.7.5-2.8.5-1.1,0-2.3-.2-3.8-.5l-7.3-1.8ZM344.9,212.6c.8.2,1.5.2,2.1,0,.6-.2.9-.7,1.1-1.4.2-.7,0-1.3-.3-1.8-.4-.5-1-.8-1.8-1l-3.1-.8-1,4.2,3.1.8ZM346.5,204.6c.7.2,1.3.1,1.8,0,.5-.2.8-.6,1-1.3.2-.7,0-1.2-.3-1.6-.3-.4-.9-.7-1.5-.9l-2.7-.7-1,3.9,2.7.7Z"/>
      <path class="st9" d="M355,219.4c-.3,0-.4-.3-.3-.6l4.8-19.5c0-.3.3-.4.6-.3l4,1c.3,0,.4.3.3.5l-4.8,19.5c0,.3-.3.4-.6.3l-4-1Z"/>
      <path class="st9" d="M369.4,223.3c-1.1-.3-2.1-.7-3-1.3-.8-.6-1.5-1.3-2-2.1-.5-.8-.8-1.7-.9-2.7-.1-1,0-2.1.2-3.2.3-1.1.7-2.1,1.3-2.9.6-.8,1.3-1.5,2.1-2,.8-.5,1.7-.8,2.8-.9,1-.1,2.1,0,3.3.2,1.2.3,2.2.8,3,1.4s1.4,1.4,1.9,2.3c.4.9.7,1.9.7,3s-.1,2.2-.5,3.5c-.1.3-.3.4-.6.3l-9.3-2.3c0,.8.2,1.4.5,1.9.4.5.9.8,1.6,1,1.1.3,2,.1,2.6-.4.2-.1.4-.2.6,0l3.2,2c.2.1.2.3.2.4,0,0,0,.1-.1.2-.5.5-1,1-1.6,1.3-.6.3-1.2.6-1.9.7s-1.3.2-2,.2c-.7,0-1.4-.1-2.1-.3ZM373.9,214.9c0-.8,0-1.4-.4-1.9-.3-.5-.8-.8-1.5-1-.7-.2-1.3-.1-1.8.1-.5.3-1,.8-1.3,1.5l5,1.2Z"/>
      <path class="st9" d="M379.4,225.5c-.3,0-.4-.3-.3-.6l3.4-13.6c0-.3.3-.4.5-.3l3.4.8c.3,0,.4.3.4.5l-.3,1.3c.7-.5,1.5-.9,2.3-1,.9-.1,1.8,0,2.7.2,1.7.4,2.9,1.2,3.6,2.4.7,1.2.8,2.6.4,4.2l-2.2,9c0,.3-.3.4-.6.3l-4-1c-.3,0-.4-.3-.3-.6l1.8-7.1c.3-1,.3-1.8,0-2.3-.2-.5-.7-.9-1.4-1.1s-1.4,0-1.9.4c-.6.4-1,1.2-1.3,2.2l-1.7,6.8c0,.3-.3.4-.6.3l-4-1Z"/>
      <path class="st9" d="M402.2,231.4c-1-.2-1.9-.7-2.6-1.2-.7-.6-1.3-1.2-1.7-2.1-.4-.8-.7-1.7-.8-2.7-.1-1,0-2.1.3-3.2.3-1.1.7-2.1,1.2-2.9.6-.8,1.2-1.5,2-2,.8-.5,1.6-.8,2.5-1,.9-.2,1.9-.1,2.9.1,1.5.4,2.7,1.2,3.4,2.3l1.6-6.6c0-.3.3-.4.5-.3l4,1c.3,0,.4.3.3.5l-4.8,19.5c0,.3-.3.4-.6.3l-3.4-.8c-.1,0-.2-.1-.3-.2,0-.1,0-.2,0-.3l.3-1.3c-.7.5-1.4.8-2.2,1-.8.2-1.7.1-2.6,0ZM404.4,227.4c.9.2,1.7,0,2.4-.4.7-.5,1.2-1.2,1.4-2.1.2-.9.2-1.8-.2-2.5-.4-.7-1-1.2-1.9-1.4s-1.7-.1-2.4.4c-.7.5-1.2,1.2-1.4,2.1-.2.9-.2,1.8.2,2.5.4.7,1,1.2,1.9,1.4Z"/>
      <path class="st9" d="M420.8,236c-1.1-.3-2.1-.7-3-1.3-.8-.6-1.5-1.3-2-2.1s-.8-1.7-.9-2.7c-.1-1,0-2.1.2-3.2.3-1.1.7-2.1,1.3-2.9.6-.8,1.3-1.5,2.1-2,.8-.5,1.7-.8,2.8-.9s2.1,0,3.3.2c1.2.3,2.2.8,3,1.4.8.6,1.4,1.4,1.9,2.3.4.9.7,1.9.7,3,0,1.1-.1,2.2-.5,3.5-.1.3-.3.4-.6.3l-9.3-2.3c0,.8.2,1.4.5,1.9.4.5.9.8,1.6,1,1.1.3,2,.1,2.6-.4.2-.1.4-.2.6,0l3.2,2c.2.1.2.3.2.4,0,0,0,.1-.1.2-.5.5-1,1-1.6,1.3-.6.3-1.2.6-1.9.7-.7.1-1.3.2-2,.2-.7,0-1.4-.1-2.1-.3ZM425.4,227.7c0-.8,0-1.4-.4-1.9-.3-.5-.8-.8-1.5-1-.7-.2-1.3-.1-1.8.1-.5.3-1,.8-1.3,1.5l5,1.2Z"/>
      <path class="st9" d="M430.8,238.2c-.3,0-.4-.3-.3-.6l3.4-13.6c0-.3.3-.4.5-.3l3.4.8c.3,0,.4.3.4.5l-.3,1.5c.7-.6,1.4-1,2.2-1.1.8-.1,1.7-.1,2.5.1.2,0,.4,0,.5.2s.3.1.5.2c.2.1.3.3.3.6l-.9,3.7c0,.3-.3.4-.6.2-.2,0-.4-.2-.6-.2-.2,0-.5-.2-.8-.2-.4,0-.7-.1-1.2-.1-.4,0-.8.1-1.2.3-.4.2-.7.4-1,.7-.3.3-.5.8-.6,1.3l-1.6,6.6c0,.3-.3.4-.6.3l-4-1Z"/>
    </g>
    <g>
      <path class="st9" d="M257.5,250.3c-.4-.2-.5-.6-.2-1,1.3-2.2,2.4-4.5,3.3-6.7.9-2.2,1.6-4.5,2.1-7,.1-.5.4-.7.9-.5l4.9,1.6c.4.1.6.4.5.9-.3,1.1-.6,2.4-1,3.6-.4,1.3-.8,2.6-1.3,3.9-.5,1.3-1,2.6-1.5,3.9-.5,1.3-1.1,2.5-1.7,3.6-.2.4-.5.5-1,.3l-5-2.6ZM272.4,255.9c-1-.1-1.9-.4-3-.8-1-.4-2-1-3.1-1.7-.4-.3-.5-.6-.4-1l1.7-5.5c.1-.3.3-.5.6-.5.2,0,.3,0,.4.2.7.5,1.4,1,2,1.3.6.3,1.2.5,1.8.6.9.1,1.7,0,2.2-.4.6-.4.9-.9,1-1.7.1-.9-.1-2-.7-3.2-.2-.4-.4-.7-.6-1-.2-.3-.4-.7-.6-1-.2-.3-.4-.7-.6-1.1-.2-.4-.4-.8-.6-1.3-.4-1.1-.5-2.3-.3-3.5.2-1.2.7-2.3,1.4-3.3.8-1,1.9-1.8,3.2-2.3-1.1-.3-2.3-.7-3.8-1.1-1.5-.4-3-.7-4.4-1-.5-.1-.7-.4-.5-.9l1.8-4.6c.2-.4.5-.6.9-.5,1.6.3,3.2.7,4.8,1.1,1.6.4,3.2.8,4.7,1.3,1.5.5,2.9.9,4.3,1.4,1.3.5,2.5,1,3.6,1.6.4.2.5.5.4,1l-1.9,4.5c-.2.4-.5.5-.9.5-2-.3-3.6-.2-4.9.4-1.3.5-2,1.4-2.2,2.6-.1.7,0,1.6.5,2.5.4.8.8,1.5,1.4,2.2.5.7,1,1.6,1.5,2.6.4,1,.7,2,.9,2.9.1.9.1,1.9,0,2.7-.2,1.2-.6,2.2-1.2,3.2s-1.4,1.7-2.3,2.4c-.9.6-2,1.1-3.2,1.4-1.2.3-2.5.3-3.8.1ZM286,256.3c-.5,0-.8-.3-.7-1,.3-2.7.3-5.4,0-8.1-.2-2.7-.6-5-1.2-7-.2-.5,0-.8.6-.8l5.1-.3c.4,0,.7.2.8.6.3,1,.5,2.2.7,3.4.2,1.3.4,2.6.6,3.9.1,1.3.3,2.7.3,4.1s0,2.7,0,4c0,.4-.3.7-.7.7l-5.5.5ZM291.9,237.4c-.7,0-1.3-.3-1.8-.7-.5-.3-1-.8-1.4-1.2-.4-.5-.6-1-.8-1.7-.2-.6-.2-1.3,0-1.9s.3-1.2.6-1.8c.3-.5.7-1,1.2-1.3.5-.4,1-.6,1.7-.8.6-.2,1.3-.2,1.9-.1.7,0,1.3.3,1.8.7.5.3,1,.8,1.4,1.2.4.5.6,1,.8,1.6.2.6.2,1.2.1,1.9,0,.7-.3,1.3-.7,1.8-.3.5-.8,1-1.2,1.4-.5.4-1,.6-1.7.8-.6.2-1.3.2-1.9.1ZM292.3,234.6c.5,0,1,0,1.4-.4.4-.3.7-.8.8-1.3,0-.5,0-1-.3-1.4-.3-.4-.7-.7-1.3-.7-.5,0-1,0-1.4.3-.4.3-.7.7-.8,1.3,0,.5,0,1,.4,1.5.3.4.8.7,1.3.8Z"/>
      <path class="st9" d="M298.7,246.9c-.5,0-.7-.3-.6-.8l.9-6.3c0-.5.3-.7.8-.6l29,4.3c.5,0,.7.3.6.8l-.9,6.4c0,.5-.3.7-.8.6l-29-4.4Z"/>
      <path class="st9" d="M349.9,267.6c-2.3-.3-4.4-.9-6.3-1.6-1.9-.7-3.4-1.6-4.6-2.6-1.2-1-2.1-2.2-2.7-3.5s-.7-2.8-.5-4.3c.2-1.1.5-2.3,1.1-3.4.2-.4.5-.5.9-.5l5.3.2h.2c.4,0,.5.3.5.6,0,.1,0,.2,0,.3-.3.7-.6,1.5-.7,2.1-.3,1.7.3,3.1,1.7,4.1,1.4,1,3.3,1.7,5.9,2.1,1.2.2,2.6.3,4.1.4,1.5,0,3.1,0,4.7,0,0,0,0,0,.1,0,0,0,0,0,.1,0,.4,0,.5.3.4.6h0c0,.1-1.3,5.6-1.3,5.6,0,.4-.4.6-.8.7-1.4,0-2.8,0-4.1,0-1.3,0-2.6-.2-3.8-.4ZM355.2,258.1c-.5.1-.8,0-.9-.4-.8-2-1.5-3.8-2-5.4s-1-3.3-1.4-4.9c-2.3-.2-4.7-.4-7-.7-2.4-.3-4.8-.6-7.2-.9-.4,0-.6-.3-.6-.8l.5-5.2c0-.5.3-.7.8-.6,2.1.3,4.1.5,6.2.8,2.1.2,4.1.5,6.1.7-.1-.9-.3-2-.5-3s-.3-2-.4-2.8c0-.5.1-.8.7-.8h5.5c.4.1.7.4.7.8,0,.4,0,.9.2,1.4,0,.5.1,1.1.2,1.6,0,.6.2,1.1.3,1.7s.2,1.1.3,1.6c1.7.1,3.2.2,4.8.3,1.5,0,2.9,0,4.2,0,.5,0,.7.2.7.7v5.4c-.2.5-.4.7-.8.7-1.2,0-2.5-.1-3.7-.2-1.2,0-2.5-.1-3.7-.2.3,1.1.8,2.4,1.3,3.6.5,1.3,1.1,2.7,1.9,4.2,0,.1.1.3,0,.5,0,.2-.2.4-.5.5l-5.6,1.5Z"/>
      <path class="st9" d="M388.6,273.2c-.9-.1-1.7-.4-2.5-.8-.8-.4-1.5-.9-2.1-1.5-.6-.6-1.1-1.4-1.4-2.3-.4-.9-.5-2-.6-3.1,0-.4,0-1,0-1.6s.1-1.3.2-2c0-.6,0-1.1-.2-1.4-.2-.3-.5-.5-.8-.6-.6,0-1.4.2-2.3.9-1,.7-1.9,1.9-2.8,3.5-.5,1.1-1.1,2.1-1.6,3.1-.5,1-1,2-1.4,3-.2.4-.5.5-1,.3l-5.5-2.8c-.4-.2-.5-.5-.3-1,1.1-2,2.3-4.2,3.7-6.6s2.8-4.9,4.2-7.4c1.4-2.5,2.8-5,4.1-7.4,1.3-2.4,2.5-4.6,3.5-6.5.2-.4.5-.5,1-.3l5.7,2.7c.4.2.5.5.3,1-.6.9-1.2,1.9-1.8,2.9-.7,1-1.3,2.1-2,3.1-.7,1-1.3,2.1-1.9,3.1-.6,1-1.2,2-1.8,2.9,1.1-.4,2.2-.5,3.3-.4.6,0,1.2.3,1.8.6.6.3,1,.7,1.4,1.2.4.5.7,1.2.9,1.9.2.8.3,1.6.3,2.7,0,.5,0,1.1-.1,1.6,0,.5,0,1-.1,1.6,0,.8,0,1.4.3,1.8.2.4.6.7,1,.7.8.1,1.6-.3,2.4-1.3.5-.6,1.1-1.6,1.6-3,.6-1.4,1.1-2.9,1.5-4.7,0-.3.2-.4.3-.5.2,0,.4,0,.6.1l5.1,3.2c.4.2.5.5.4,1-.7,2.3-1.5,4.3-2.3,6-.8,1.6-1.9,3-3.1,4-1.1.9-2.4,1.6-3.8,2-1.4.4-2.8.5-4.2.3Z"/>
    </g>
    <g>
      <path class="st9" d="M263.6,295.8c-.4.2-.8,0-1-.3-.6-.9-1.2-1.8-1.7-2.7-.5-.9-1.1-1.9-1.6-2.8-2.5.2-5,.5-7.5.7-2.5.2-5,.4-7.5.5-.5,0-.7-.2-.8-.7l-.6-4.6c0-.5.2-.8.7-.8,2.2-.1,4.5-.2,6.7-.4,2.2-.2,4.4-.3,6.6-.6-.2-.5-.3-.9-.5-1.4s-.3-.9-.5-1.3c-3.8.4-7.6.7-11.5,1-.4,0-.7-.2-.8-.6l-.8-4.5c0-.5.1-.8.7-.8,1.8-.1,3.6-.2,5.4-.4s3.6-.3,5.3-.5c-.1-.5-.3-1-.4-1.4-.1-.5-.2-.9-.4-1.4-.1-.5,0-.8.6-.9l5.3-.7c.5,0,.7.1.8.6,0,.5.2,1,.3,1.5.1.5.3,1,.4,1.6,1.5-.2,2.9-.4,4.3-.5,1.4-.2,2.6-.4,3.8-.5.5,0,.8.1.8.6l.7,4.6c0,.5-.1.8-.6.8-1.2.1-2.3.3-3.5.4-1.2.1-2.4.2-3.6.4.2.4.3.9.5,1.3s.4.9.6,1.3c1.6-.2,3.1-.4,4.5-.6s2.8-.4,4.2-.6c.5,0,.7.1.8.6l.8,4.6c0,.5,0,.8-.5.8-2.3.3-4.7.7-7.1,1,.8,1.3,1.6,2.5,2.4,3.6.1.1.2.3.2.5,0,.2-.1.4-.4.6l-5.1,2.1ZM261.4,305.8c-3,.1-5.5,0-7.6-.5-2.1-.4-3.8-1.1-5.1-2-1.3-.9-2.3-1.9-2.9-3.1-.6-1.2-1-2.5-1-4,0-.3,0-.6,0-1,0-.3,0-.7,0-1,0-.4.3-.7.8-.7l5.1-.9h.2c.4,0,.6.2.6.6v.2c-.2,2,.4,3.5,1.7,4.5,1.3,1,3.5,1.4,6.5,1.3,1.1,0,2.4-.2,3.8-.4,1.4-.2,2.9-.5,4.6-.8,0,0,0,0,.1,0,0,0,0,0,.1,0,.4,0,.6.2.6.7l-.2,5.8c0,.5-.3.8-.7.8-1.2.2-2.4.3-3.5.4-1.1.1-2.2.2-3.1.2Z"/>
      <path class="st9" d="M286.7,304.4c-.7,0-1.5,0-2.2-.1-.7-.1-1.4-.3-2.1-.6-.7-.3-1.3-.6-1.9-1-.6-.4-1.1-.9-1.5-1.5-.4-.5-.6-1.1-.8-1.7-.2-.6-.3-1.2-.3-1.9,0-.8,0-1.5.3-2.2.2-.7.7-1.5,1.2-2.2.8-.9,1.8-1.7,3-2.1,1.2-.5,2.6-.7,4.1-.8.3,0,.5,0,.8,0s.5,0,.8,0c0-2-.2-4.1-.4-6.6-.2-2.4-.4-4.8-.6-7.2,0-.5.2-.8.7-.8h5.6c.5-.1.8,0,.8.6l.2,4.6,8.5-.4c.5,0,.8.2.8.7l.2,4.7c0,.5-.2.8-.7.8l-8.4.4.2,4.5c1.7.6,3.4,1.4,5.1,2.3,1.8.9,3.5,2,5.3,3.3.2.1.4.3.4.6,0,.1,0,.3-.2.5l-3.2,4.8c-.1.2-.3.3-.5.3-.2,0-.4,0-.5-.2-.8-.7-1.8-1.5-2.9-2.4-1.1-.8-2.3-1.6-3.5-2.4-.2,1-.5,1.9-1,2.6-.5.7-1.1,1.3-1.8,1.8-.7.5-1.5.8-2.3,1.1-.9.2-1.8.4-2.8.4ZM286.3,298.7c.5,0,.9-.1,1.2-.3s.5-.4.6-.6c.1-.3.2-.6.3-1,0-.4,0-.8,0-1.2-.5,0-1,0-1.5,0-.6,0-1.1.1-1.6.3-.5.2-.9.5-1.1,1,0,.2-.1.4-.1.6,0,.3.1.5.3.7s.5.3.8.4c.3,0,.7.1,1,0Z"/>
      <path class="st9" d="M318.7,303.7c-.4,0-.7-.1-.9-.5l-2.7-5.4c-.1-.3-.2-.5,0-.6,0-.2.3-.3.6-.3,2.3-.2,4.5-.5,6.7-.8,2.2-.4,4.2-1.1,6-2.1,1.1-.6,1.9-1.5,2.6-2.5s.9-2,.9-3c0-1-.4-1.8-1.2-2.6-.8-.7-2-1.1-3.6-1.1-1.6,0-3.7.2-6,.6-2.4.5-5,1.2-8.1,2.3-.5.2-.8,0-1-.5l-1.7-5.5c-.1-.5,0-.8.5-.9,3.2-1,6.2-1.7,9-2.1,2.8-.5,5.2-.7,7.3-.7,2.1,0,3.9.3,5.4.8s2.8,1.2,3.8,2.1c1,.9,1.8,1.9,2.3,3.1.5,1.2.8,2.4.8,3.7,0,1.1,0,2.3-.4,3.4-.3,1.1-.8,2.3-1.4,3.3-.6,1.1-1.4,2.1-2.3,3-.9.9-2,1.8-3.2,2.5-1.6.9-3.5,1.7-5.8,2.3-2.3.6-4.8,1.1-7.6,1.3ZM333.8,277.2c-3.1-.7-6.2-1.1-9.3-1.3-3.1-.2-6-.3-8.7-.3-.5,0-.7-.3-.7-.8l.9-5.2c0-.5.3-.7.8-.7,1.4,0,2.9.1,4.4.2,1.5.1,3.1.2,4.7.3,1.6.1,3.1.3,4.7.4,1.5.2,3,.4,4.4.6.5,0,.7.3.6.8l-.9,5.3c0,.5-.4.7-.9.6Z"/>
      <path class="st9" d="M363.2,301.9c-1.8,0-3.4,0-5,0s-3.1-.4-4.5-.8c-1.1-.3-2-.7-2.9-1.3-.9-.5-1.6-1.2-2.2-1.9-.6-.7-1.1-1.6-1.5-2.5-.4-.9-.6-1.8-.6-2.8,0-1.9.5-3.8,1.7-5.7,1.2-2,3.1-3.8,5.8-5.4-.6-1.9-.9-3.8-1.1-5.9-.2-2-.3-4.1-.4-6.2,0-.5.2-.8.7-.8l6.4-.2c.5,0,.7.2.7.7,0,1.8,0,3.5.2,5,0,1.5.3,3,.5,4.3,1.5-.5,3-1,4.7-1.4,1.7-.4,3.4-.9,5.1-1.3.4,0,.7,0,.9.5l2.1,5.6c.2.5,0,.8-.5.9-2.7.5-5.2,1.1-7.6,1.8-2.4.6-4.4,1.3-6.2,2.1-2,.9-3.4,1.8-4.2,2.8-.8,1-1.1,1.8-1.1,2.6,0,.5.2,1,.5,1.5.3.4.7.7,1.1.9.7.3,1.5.4,2.5.5,1,0,2.1.1,3.4,0,1,0,2-.1,3.1-.2,1.1-.1,2.1-.2,3.2-.4,1.1-.2,2.1-.3,3.1-.5,1-.2,1.9-.3,2.8-.5h.2c.4,0,.6.2.6.6v5.9c.1.4-.1.7-.6.8-1.9.4-3.8.6-5.7.9-1.8.2-3.6.4-5.3.4Z"/>
    </g>
    <g>
      <path class="st9" d="M137.4,158.6c-2.3-.5-4.3-1.2-5.8-2-1.5-.8-2.8-1.7-3.6-2.6-.9-.9-1.5-1.9-1.7-2.9-.3-1-.3-2-.1-2.9.2-.8.5-1.6,1.1-2.3.5-.7,1.2-1.3,2-1.7-1.6-.2-3.1-.4-4.6-.5-1.5-.2-2.9-.3-4.3-.5-.4,0-.6-.3-.5-.7l.7-4.6c0-.4.3-.5.9-.5.6,0,1.2.2,1.8.3.6.1,1.1.2,1.7.3.9,0,1.8-.2,2.8-.5.9-.2,1.9-.5,2.8-.8s1.8-.6,2.6-.9c.8-.3,1.6-.6,2.2-.9-1.3-.2-2.7-.5-4.2-.8-1.5-.3-3-.6-4.4-.9-.4,0-.6-.3-.5-.7l.9-4.3c0-.4.3-.6.7-.5,1.2.3,2.6.6,4.2,1,1.5.3,3.1.7,4.6,1,1.6.3,3.1.7,4.6,1,1.5.3,2.8.6,4,.8.4,0,.6.3.5.7l-.7,3.6c0,.3-.3.6-.6.6-1.3.4-2.7.9-4.3,1.5-1.6.6-3.2,1.1-4.7,1.6,1.9.3,3.9.5,6,.8,2,.3,4.1.6,6.2.9.4,0,.6.3.5.7l-.7,4.2c0,.4-.3.6-.8.5-1-.2-2.1-.4-3.1-.6-1-.2-2.1-.4-3.1-.6-.4,0-.9,0-1.3,0s-.8,0-1.2,0c-.7,0-1.4.1-2.1.3-.6.1-1.2.3-1.7.6-.5.2-.9.5-1.2.8-.3.3-.5.7-.6,1,0,.4,0,.8.2,1.3s.7.9,1.4,1.3c.7.4,1.6.8,2.7,1.2,1.2.4,2.6.7,4.3,1,.4,0,.6.3.5.6v.2s-1.9,4.4-1.9,4.4c-.2.4-.4.5-.8.4-.2,0-.5,0-.7-.1-.2,0-.4,0-.6-.1Z"/>
      <path class="st9" d="M159.2,163.9c-1.2-.3-2.4-.7-3.5-1.3-1.1-.6-2-1.4-2.7-2.3-.7-.9-1.3-2.1-1.6-3.3-.3-1.3-.3-2.7,0-4.4.2-1.1.5-2.4.8-3.9.4-1.5.7-3,1.2-4.6.4-1.6.9-3.2,1.3-4.9.5-1.6.9-3.2,1.2-4.6,0-.4.4-.6.8-.5l5,1.3c.4,0,.6.4.4.8-.4,1.5-.9,2.9-1.3,4.4-.4,1.5-.9,2.9-1.3,4.4-.4,1.4-.8,2.8-1.1,4.1-.3,1.3-.6,2.5-.8,3.6-.2.8-.2,1.5,0,2.1.1.6.3,1.2.6,1.6.3.4.7.8,1.1,1.1.5.3,1,.5,1.5.6.9.2,1.8.2,2.7,0,1-.2,1.8-.5,2.6-1.1.8-.5,1.5-1.3,2-2.2.6-.9,1.2-2.1,1.9-3.6.1-.3.3-.4.6-.4.1,0,.2,0,.3.2l3.6,3.7c.3.3.3.6.1.9-.3.6-.6,1.2-1,1.7-.3.5-.7,1-1,1.5-.4.5-.8.9-1.2,1.4-.4.4-.9.9-1.4,1.3-.7.6-1.4,1.1-2.3,1.5-.9.4-1.8.7-2.8.8-1,.2-2,.3-3,.3-1,0-2-.1-3-.4Z"/>
      <path class="st9" d="M178,161.7c-.3-.2-.4-.3-.3-.5,0-.1.1-.3.2-.4,1.6-1.6,3.1-3.3,4.5-5,1.4-1.7,2.7-3.6,4-5.7l-4-.9c-.4,0-.6-.3-.5-.7l.9-4c0-.4.3-.6.7-.5l5.2,1.2c.3-.5.5-1.1.8-1.7.3-.6.5-1.2.7-1.7.2-.4.4-.5.8-.4l4.6,1.4c.4.1.5.4.4.8-.4,1-.9,2-1.4,3l3.2.7c.4,0,.6.3.5.7l-.9,4c0,.4-.3.6-.7.5l-4.5-1c-1.4,2.3-2.8,4.5-4.4,6.5-1.6,2-3.2,4-4.8,5.8-.2.3-.5.3-.8.1l-4-2.3ZM190.7,170.8c-1.2-.3-2.2-.7-3.2-1.4-1-.6-1.7-1.5-2.1-2.5-.2-.5-.4-1.1-.4-1.6,0-.6,0-1.1.1-1.7.2-.9.6-1.7,1.2-2.5.6-.8,1.4-1.4,2.3-1.8.8-.3,1.6-.5,2.4-.6.8,0,1.7,0,2.6.2.3,0,.6.2.9.3.3.1.6.2.9.3.2-.8.3-1.7.5-2.5.2-.9.4-1.7.6-2.6,0-.4.3-.5.8-.4l4.2.9c.4,0,.6.3.5.7-.3,1.1-.6,2.2-.8,3.3-.3,1.1-.5,2.3-.8,3.4,1,.8,1.9,1.6,2.8,2.5.9.9,1.6,1.9,2.3,2.8.1.2.2.3.1.5,0,.1-.1.2-.3.4l-4,2.8c-.2.1-.3.2-.5.1-.2,0-.3-.2-.4-.4-.5-1.1-1.1-2-1.7-2.9-.4.6-1,1.2-1.6,1.6-.6.4-1.3.7-2,.9-.7.2-1.4.3-2.2.2-.8,0-1.5-.1-2.2-.3ZM191.8,166.2c.8.2,1.4,0,1.9-.3.4-.4.7-.9.9-1.7-.7-.5-1.3-.8-2-.9-.7-.2-1.3-.1-1.8,0-.4.2-.6.5-.7.9,0,.4,0,.7.2.9.1.2.4.4.7.6.3.2.6.3.9.4ZM205.9,156.8c-.1,0-.2-.1-.4-.3-.9-.9-1.9-1.7-3-2.4-1.2-.7-2.5-1.3-4-1.9-.4-.2-.5-.4-.3-.8l1.8-3.5c.2-.3.4-.4.8-.3.8.3,1.6.6,2.4.9.8.3,1.6.7,2.4,1.1.8.4,1.5.8,2.3,1.3.7.5,1.3.9,1.9,1.5.2.2.2.4.2.5,0,.1,0,.2-.2.3l-3.3,3.4c-.2.2-.4.3-.5.2Z"/>
    </g>
    <g>
      <path class="st9" d="M138.1,195.7c-.2,0-.3-.1-.4-.3-1.5-2.7-3.3-5.2-5.3-7.5-2-2.3-4.4-4.4-7-6.4-.2-.2-.3-.3-.3-.5,0-.2.1-.3.3-.4l4.3-2.7c.1,0,.3-.1.5-.1.2,0,.3,0,.5.2.8.6,1.6,1.2,2.5,1.9.8.7,1.7,1.5,2.5,2.3,1.6-1.1,3-2.3,4-3.4,1.1-1.1,1.9-2.1,2.6-3l-18.9-1.3c-.4,0-.6-.3-.6-.7l.4-4.7c0-.4.3-.6.7-.6l27.1,2.1c.5,0,.6.3.5.7-.4,1.7-.9,3.3-1.7,4.9-.8,1.5-1.7,3-2.7,4.3-1,1.3-2.1,2.5-3.3,3.6-1.2,1.1-2.4,2.1-3.5,2.9.7.8,1.3,1.6,1.8,2.3.6.8,1,1.5,1.4,2.1,0,.1.1.2.1.4,0,.2-.1.4-.3.5l-4.6,3.4c-.1.1-.3.2-.4.2Z"/>
      <path class="st9" d="M158.4,197.6c-.3,0-.6,0-.8-.4l-3.2-5c0-.2-.1-.3-.1-.4,0-.2.2-.4.5-.4,2.3-.2,4.4-.7,6.5-1.4,2-.7,3.8-1.7,5.4-2.9,1.6-1.2,3-2.7,4.1-4.5,1.2-1.7,2-3.7,2.6-5.9l-7.7-.6c-.4.9-1,1.7-1.6,2.6-.6.9-1.3,1.7-2.1,2.4-.8.8-1.5,1.5-2.4,2.1-.8.6-1.6,1.2-2.4,1.6-.1,0-.3.1-.4.1-.1,0-.3,0-.4-.2l-3.5-3.4c-.2-.1-.2-.3-.2-.4,0-.2.1-.3.4-.4,1.1-.6,2.2-1.2,3.2-2,1-.8,1.8-1.6,2.6-2.5.8-.9,1.4-1.8,1.9-2.6.5-.9,1-1.7,1.3-2.4.2-.3.4-.5.8-.4,1.2,0,2.5.2,4,.3s3,.2,4.5.3c1.6.1,3.1.2,4.7.3,1.6.1,3.1.2,4.5.3.4,0,.6.3.5.7-.5,3.7-1.5,7-2.7,9.8-1.3,2.8-2.9,5.3-4.8,7.3-1.9,2-4.1,3.7-6.6,5-2.5,1.3-5.3,2.3-8.4,3Z"/>
      <path class="st9" d="M186.1,199.3c-.4,0-.6-.3-.6-.7l2.1-26.7c0-.4.3-.6.7-.6l5.3.4c.4,0,.6.3.6.7l-.6,8.2c1.2.3,2.5.7,3.7,1.1s2.5.9,3.7,1.3c1.2.5,2.4,1,3.6,1.5,1.2.5,2.2,1.1,3.2,1.6.2.1.3.3.3.5,0,.1,0,.2-.1.4l-2.9,4.6c-.2.3-.5.4-.9.2-1.7-1-3.5-2-5.4-2.8-1.9-.9-3.8-1.6-5.8-2.2l-.9,12.3c0,.4-.3.6-.7.6l-5.3-.4ZM202.2,180.7c-.4.1-.7,0-.8-.3-.4-.8-.8-1.7-1.3-2.6-.5-.9-1-1.7-1.6-2.4-.1-.2-.2-.3-.2-.4,0-.2.1-.3.4-.4l2-.8c.1,0,.3,0,.4,0,.2,0,.3,0,.4.2.3.3.6.7.9,1.1.3.4.6.8.9,1.3.3.5.6.9.9,1.4.3.5.5.9.7,1.3,0,.1,0,.3,0,.4,0,.2-.1.4-.4.5l-2.2.9ZM206.8,178.8c-.3.1-.6,0-.8-.3-.2-.4-.4-.8-.6-1.2-.2-.4-.5-.9-.8-1.3-.3-.4-.5-.8-.8-1.2-.3-.4-.5-.7-.8-1-.1-.1-.2-.3-.2-.4,0-.2.1-.3.4-.4l1.9-.8c.1,0,.3,0,.4,0,.2,0,.3,0,.4.2.3.3.6.7.9,1.1.3.4.6.8.9,1.2.3.4.6.9.8,1.3.3.4.5.9.7,1.2.2.4,0,.6-.4.8l-2.1.9Z"/>
    </g>
    <g>
      <path class="st9" d="M195.7,253.5c-.2-.1-.2-.3-.2-.6l.8-3.1c0-.3.3-.4.6-.2.6.4,1.1.8,1.5,1.1.4.3.8.4,1.2.5.3,0,.6,0,.9,0,.3-.1.5-.3.7-.6.4-.5.8-1.1,1.3-1.8.5-.7,1-1.5,1.5-2.3-.7.4-1.5.7-2.4,1-.9.3-1.8.6-2.8.8s-2,.4-3.1.5c-1.1.1-2.2.1-3.4.1,0,0-.2,0-.3,0s-.1-.2-.2-.3l-.6-3.5c0-.1,0-.2,0-.3,0,0,.2-.1.4-.1,2,.2,3.8.1,5.5-.1,1.7-.3,3.2-.7,4.5-1.2l-5.7-3.7c-.2-.2-.3-.3-.1-.6l1.6-2.5c.2-.2.3-.3.6-.1l8.5,5.6,1.6-2.5c.2-.2.3-.3.6-.1l2.7,1.8c.2.2.3.3.1.6-.3.5-.6.9-.8,1.3-.3.4-.5.8-.8,1.2l2.5,1.7c.2.2.3.3.1.6l-1.6,2.5c-.2.2-.3.3-.6.1l-2.5-1.6c-.4.6-.8,1.3-1.2,1.9-.4.6-.8,1.3-1.3,2-.2.4-.5.8-.8,1.3-.3.5-.6.9-.9,1.3-1,1.3-2.1,1.9-3.4,1.9-1.3,0-2.9-.7-4.7-2.1Z"/>
      <path class="st9" d="M218.1,268.2c-.3,0-.4-.2-.3-.5.1-.4.3-.8.4-1.2.1-.4.2-.8.3-1.2-2.3-1-4.5-2-6.6-2.9-2.1-1-4-1.9-5.6-2.7-.2-.1-.3-.3-.2-.5l1.2-3.1c0-.3.3-.4.6-.2.3.1.5.3.8.4.3.1.5.3.8.4,1.1-.8,2.2-1.6,3.2-2.4,1-.8,2-1.6,2.9-2.3.9-.8,1.8-1.5,2.5-2.2.8-.7,1.5-1.4,2.1-2,.2-.2.4-.2.6,0l2.9,2.5c.2.2.2.4,0,.6-.7.6-1.4,1.2-2.2,1.9-.8.7-1.7,1.4-2.6,2.1-.9.7-1.8,1.4-2.7,2.1-.9.7-1.8,1.3-2.7,1.9,1,.5,2,1.1,3,1.5,1,.5,1.9.9,2.7,1.3,0-.8.1-1.6.1-2.4,0-.8,0-1.6,0-2.4,0-.1,0-.2,0-.3,0-.1.2-.2.4-.1l3.2.6c.3,0,.4.2.4.4,0,.9.1,1.8.1,2.8,0,1,0,1.9-.1,2.9,0,1-.2,1.9-.4,2.9-.2.9-.4,1.8-.6,2.6,0,.2-.2.3-.5.3l-3.7-.7Z"/>
      <path class="st9" d="M180.7,268.4c-.2-.1-.3-.3-.3-.5l.2-3.7c0,0,0-.2,0-.2.1-.2.3-.2.5,0,1.2.7,2.3,1.3,3.4,1.7,1.1.4,2.2.6,3.2.7s1.9,0,2.7-.3c.8-.2,1.5-.6,2.1-1.2-.7-.5-1.5-1-2.3-1.5-.8-.5-1.7-1.1-2.5-1.6-.9-.6-1.7-1.1-2.6-1.7-.9-.6-1.7-1.1-2.5-1.6-.2-.2-.3-.3-.1-.6l1.7-2.5c.2-.2.3-.3.6-.1l13.6,8.9c.2.2.3.3.1.6-1.1,1.6-2.2,2.8-3.5,3.8s-2.7,1.6-4.2,1.9c-1.5.3-3.1.3-4.8,0-1.7-.3-3.4-1-5.2-2ZM186.8,254.8c-.2-.2-.3-.3-.1-.6l1.6-2.4c.2-.2.4-.3.6-.1l11,7.2c.2.2.3.3.1.6l-1.6,2.5c-.2.2-.3.3-.6.1l-11-7.2Z"/>
      <path class="st9" d="M201.6,281.8c-.2-.2-.3-.3-.1-.6l4.3-6.5c-1.3,0-2.5-.1-3.7-.3-1.2-.2-2.3-.4-3.3-.7-.2,0-.4-.2-.3-.5v-3.7c0,0,0-.2.1-.2,0-.1.2-.1.4,0,1.3.5,2.7.8,4.2,1.1,1.5.2,2.9.3,4.4.2,1.5,0,2.9-.2,4.3-.5,1.4-.3,2.6-.7,3.8-1.1.2,0,.4,0,.6.2l1.8,3.1c0,.1.1.3,0,.4,0,0-.1.1-.2.2-1.1.4-2.2.8-3.3,1-1.1.3-2.2.5-3.3.7l-6,9.3c-.2.2-.3.3-.6.1l-3-2Z"/>
      <path class="st9" d="M212.7,288.6c-.2,0-.4-.2-.3-.5v-3.6c0,0,0-.2,0-.2,0-.1.2-.2.4,0,1.1.3,2.1.6,3.2.7s2,.1,3,0,1.8-.2,2.6-.4c.8-.2,1.6-.4,2.2-.7.7-.3,1.2-.5,1.7-.8.5-.3.8-.5,1.1-.8l-1.8-1.2-3.6-2.3-1.8-1.2c-.2-.2-.3-.3-.1-.6l1.7-2.7c.2-.2.3-.3.6-.1l11.3,7.4c.2.2.3.4,0,.6-.9,1.1-2,2.1-3.3,3-1.2.8-2.5,1.6-4,2.2.4,1.1.8,2.2,1.1,3.4.4,1.2.6,2.4.7,3.5,0,.1,0,.2,0,.3,0,0-.2.2-.3.2l-3.8.6c-.1,0-.2,0-.3,0,0,0-.1-.2-.1-.3,0-1.1-.1-2.2-.3-3.3-.2-1.1-.4-2.2-.7-3.2-1.6.4-3.2.5-4.8.5-1.6,0-3.2-.2-4.7-.6Z"/>
    </g>
    <g>
      <path class="st9" d="M167.3,257.3c-.7,0-1.1-.1-1.5-.7l-5.1-8.3c-.2-.4-.3-.7-.1-1,.1-.3.4-.4.9-.5,4.5-.4,8.1-1.1,11-2.1,2.8-1,4.7-2.1,5.5-3.5-.6.5-1.4.9-2.3,1.2-.9.3-1.8.5-2.8.6-1.4.1-2.9,0-4.3-.4-1.4-.4-2.7-1.1-3.8-2.1-1.2-1-2-2.2-2.7-3.7-.6-1.4-1-2.9-1.1-4.4-.1-1.9,0-3.7.6-5.5.6-1.8,1.5-3.3,2.9-4.5,1-.9,2.1-1.6,3.4-2.1,1.3-.5,2.6-.8,4-.9.8,0,1.6,0,2.4,0,0-.5,0-.9-.1-1.4,0-.5-.1-.9-.1-1.4l-23.2,1.9c-.8,0-1.2-.3-1.3-1.1l-.7-8.3c0-.8.3-1.2,1.1-1.3l23-1.9c-.1-.8-.2-1.5-.2-2.3s-.1-1.5-.2-2.3c0-.8.3-1.2,1.1-1.3l9.6-.8c.8,0,1.2.3,1.3,1l.4,4.6,15.2-1.2c.8,0,1.2.3,1.3,1.1l.7,8.3c0,.8-.3,1.2-1.1,1.3l-15.3,1.2c.1,1.6.2,3.2.4,4.8.1,1.7.2,3.4.4,5.2.5.9,1,2.1,1.5,3.5.4,1.4.7,2.9.9,4.7,0,.6,0,1.2,0,1.8,0,.6,0,1.2,0,1.9-.1,2.3-.7,4.6-1.7,6.7-1,2.2-2.5,4.1-4.3,5.8-1.8,1.7-4.1,3.2-6.7,4.5-2.6,1.2-5.5,2.1-8.8,2.6ZM174.1,234c.4,0,.8-.1,1.1-.3.3-.2.6-.4.8-.8.3-.4.4-.9.5-1.3,0-.4,0-.8,0-1.2,0-.5,0-.8-.2-1.1,0-.3-.2-.5-.2-.5,0,0,0,0,0,0,0,0,0,0,0,0-.2-.4-.6-.8-.9-.9-.4-.2-.8-.3-1.3-.2-.5,0-.9.2-1.2.4-.4.2-.7.6-.9,1.1-.3.7-.4,1.4-.3,2.1,0,.8.3,1.5.7,2.1.5.7,1.2,1,2.1.9Z"/>
      <path class="st9" d="M234.4,250.7c-2.4.2-4.7,0-7-.4-2.3-.5-4.4-1.4-6.2-2.6-1.9-1.3-3.5-3-4.8-5.1-1.3-2.1-2.1-4.8-2.5-7.9-.3-2.1-.5-4.6-.7-7.5-.2-2.8-.3-5.8-.5-9-.1-3.2-.3-6.3-.4-9.6-.1-3.2-.2-6.3-.4-9.1,0-.8.3-1.2,1.1-1.3l9.8-.5c.8,0,1.2.3,1.2,1.1,0,2.9.1,5.8.2,8.7,0,2.9.1,5.8.2,8.6,0,2.8.2,5.4.4,8,.2,2.5.3,4.8.6,6.9.2,1.6.5,2.9,1.1,3.9.6,1.1,1.2,1.9,2,2.5.8.6,1.7,1.1,2.7,1.3,1,.3,2,.3,3.1.2,1.7-.1,3.3-.6,5-1.5,1.6-.9,3-2,4-3.4,1.1-1.4,1.9-3.1,2.5-5,.6-1.9,1-4.4,1.3-7.5,0-.6.3-1,.8-1,.2,0,.5,0,.7.2l8.7,4.7c.6.3.8.8.7,1.6-.2,1.3-.5,2.5-.8,3.7-.3,1.1-.6,2.2-1,3.3-.4,1-.8,2.1-1.3,3.1-.5,1-1.1,2.1-1.7,3.2-.9,1.4-2,2.7-3.3,3.9s-2.8,2.2-4.5,3.1c-1.7.9-3.4,1.6-5.3,2.2-1.9.6-3.8.9-5.7,1.1Z"/>
    </g>
    <line class="st1" x1="123.7" y1="120.7" x2="219.3" y2="142.5"/>
    <line class="st1" x1="430.8" y1="111.3" x2="330.3" y2="142.5"/>
    <line class="st1" x1="432.2" y1="256.3" x2="319.6" y2="210.5"/>
    <line class="st1" x1="226.2" y1="307.8" x2="266.7" y2="218"/>
  </g>
</svg>