<?xml version="1.0" encoding="UTF-8"?>
<svg id="_レイヤー_1" data-name=" レイヤー 1" xmlns="http://www.w3.org/2000/svg" version="1.1" viewBox="0 0 494.8 509.7">
  <defs>
    <style>
      .cls-1 {
        font-size: 21.6px;
      }

      .cls-1, .cls-2, .cls-3, .cls-4, .cls-5, .cls-6, .cls-7, .cls-8, .cls-9, .cls-10, .cls-11, .cls-12, .cls-13, .cls-14, .cls-15, .cls-16, .cls-17, .cls-18, .cls-19, .cls-20, .cls-21, .cls-22, .cls-23 {
        isolation: isolate;
      }

      .cls-1, .cls-2, .cls-3, .cls-4, .cls-5, .cls-6, .cls-7, .cls-8, .cls-9, .cls-10, .cls-11, .cls-12, .cls-13, .cls-14, .cls-15, .cls-16, .cls-17, .cls-18, .cls-19, .cls-21, .cls-24, .cls-22, .cls-23 {
        fill: #fff;
      }

      .cls-1, .cls-2, .cls-3, .cls-4, .cls-5, .cls-6, .cls-7, .cls-8, .cls-9, .cls-10, .cls-11, .cls-12, .cls-13, .cls-14, .cls-15, .cls-16, .cls-17, .cls-18, .cls-19, .cls-21, .cls-22, .cls-23 {
        font-family: 851Letrogo, 851Letrogo;
      }

      .cls-2 {
        font-size: 9.3px;
      }

      .cls-25, .cls-26 {
        fill: none;
      }

      .cls-25, .cls-24 {
        stroke-width: 0px;
      }

      .cls-3 {
        font-size: 20.3px;
      }

      .cls-4 {
        font-size: 11.4px;
      }

      .cls-5 {
        font-size: 27px;
      }

      .cls-6 {
        font-size: 10.5px;
      }

      .cls-7 {
        font-size: 16px;
      }

      .cls-8 {
        font-size: 21.1px;
      }

      .cls-9 {
        font-size: 21.2px;
      }

      .cls-10 {
        font-size: 5.8px;
      }

      .cls-11 {
        font-size: 22.8px;
      }

      .cls-12 {
        font-size: 21.2px;
      }

      .cls-13 {
        font-size: 16.2px;
      }

      .cls-14 {
        font-size: 25.3px;
      }

      .cls-26 {
        stroke: #fff;
        stroke-miterlimit: 10;
        stroke-width: 6px;
      }

      .cls-15 {
        font-size: 13.9px;
      }

      .cls-16 {
        font-size: 12.4px;
      }

      .cls-17 {
        font-size: 27.2px;
      }

      .cls-18 {
        font-size: 6.9px;
      }

      .cls-19 {
        font-size: 13.9px;
      }

      .cls-21 {
        font-size: 4.5px;
      }

      .cls-22 {
        font-size: 27.8px;
      }

      .cls-23 {
        font-size: 26px;
      }
    </style>
  </defs>
  <g id="_レイヤー_2" data-name=" レイヤー 2">
    <rect class="cls-25" y="-49.6" width="494.8" height="608.8"/>
    <rect class="cls-25" y="-49.6" width="494.8" height="608.8"/>
    <rect class="cls-25" y="-49.6" width="494.8" height="608.8"/>
    <path class="cls-24" d="M227.1,144.3v-.3h.2c0-.2.2-.2.3-.2l6.3,3.7h0l-1.2-7.2s0-.2.1-.2h.2c.1-.2.2-.2.3-.1l6.7,6.8c.1.1.1.3,0,.4l-1.1.7h-.3l-3.7-3.9h0l1.1,5.9s0,.2-.1.3h-.2c-.1.2-.2.2-.3.1l-5.2-3.1h0l2.4,4.8v.3l-1,.7c-.1.1-.3,0-.4-.1l-4-8.7h-.1Z"/>
    <path class="cls-24" d="M238.5,142.3c-.1-.1-.1-.3,0-.4l1.1-.5h.3l2.6,2.3h0v-3.5q0-.2.2-.3l1-.5c.2-.1.4,0,.4.2v10.2s0,.2-.1.2l-1.1.5c-.2,0-.4,0-.4-.2v-4.7l-4.1-3.4h.1Z"/>
    <path class="cls-24" d="M247.8,133.6c0-.1,0-.3.2-.3h.3l7.1,4.6h0l-1.4-5.6c0-.1,0-.3.2-.3l1.2-.3c.1,0,.3,0,.3.2l2.2,9.2c0,.1,0,.3-.2.3h-.3l-7.2-4.8h0l1.4,5.9c0,.1,0,.3-.2.3l-1.2.3c-.1,0-.3,0-.3-.2l-2.2-9.2h0Z"/>
    <path class="cls-24" d="M261.4,137.2h1c0-.7-.3-.9-.8-.9s-1.2.2-1.5.4c-.2,0-.3,0-.4-.2l-.2-.7c0-.2,0-.3.2-.4.1,0,1-.4,1.9-.5,1.7-.2,2.2.7,2.4,2.2l.3,3c0,.1-.1.3-.2.3h-.5c-.1,0-.2,0-.3-.1l-.2-.4c-.3.3-.8.8-1.6.9-1.1.1-2-.5-2.1-1.7-.1-1,.6-1.8,2-2M261.7,139.6c.5,0,.8-.5.9-.6v-.8s-.5-.1-.9,0c-.5,0-.9.4-.8.9,0,.4.4.7.8.6"/>
    <path class="cls-24" d="M265.7,134.9c0-.1.1-.3.3-.3h.5c.1,0,.2,0,.2.2l.2.5c.2-.3.9-.8,1.9-.8s1.4.3,1.8.9c.2-.2,1-.9,2-.8,1.8,0,2.4,1.4,2.4,2.8v2.7c0,.1-.1.3-.3.3h-1.1c-.1,0-.3-.2-.3-.3v-2.8c0-.7-.3-1.2-1-1.2s-1.2.6-1.2.6v3.4c0,.1-.2.3-.3.3h-1c-.1,0-.3-.1-.3-.3v-2.8c0-.7-.3-1.2-1-1.2s-1,.5-1.2.9v3.1c0,.1-.2.3-.3.3h-1.1c-.1,0-.3-.2-.3-.3v-5.1h0Z"/>
    <path class="cls-24" d="M279.4,135.2c1.4.2,2.5,1.4,2.2,2.9v.4c0,.1-.2.2-.3.2l-3.5-.5c0,.6.4,1.3,1.2,1.4.4,0,.9,0,1.1-.2h.4l.5.7v.4c-.5.4-1.3.6-2.2.5-1.7-.2-2.7-1.7-2.5-3.3s1.6-2.8,3.2-2.5M280.1,137.6c0-.5-.4-1-.9-1.1-.5,0-1.1.3-1.2.8l2.1.3h0Z"/>
    <path class="cls-24" d="M286.4,136.9c0-.1.2-.2.3-.2l1.1.3c.1,0,.2.2.2.3l-1.2,4.9c0,.1-.2.2-.3.2l-1.1-.3c-.1,0-.2-.2-.2-.3l1.2-4.9h0ZM287.1,133.8c.1-.5.6-.8,1.1-.7s.9.6.7,1.2-.6.8-1.2.7c-.5-.1-.8-.6-.7-1.2"/>
    <path class="cls-24" d="M288.2,142.2l.6-.6c.1-.1.2-.1.3,0,0,0,.5.5,1.1.7.3,0,.5,0,.6-.2,0-.2,0-.4-.7-.9-.9-.7-1.2-1.4-1-2.2s1.1-1.4,2.5-1c.8.2,1.3.6,1.5.9.1.1.1.3,0,.4l-.5.6c-.1.1-.3,0-.4,0,0,0-.5-.5-1-.6-.3-.1-.5,0-.5.2s.1.4.6.8c.9.7,1.5,1.4,1.2,2.4-.3.9-1.3,1.4-2.6,1-.9-.3-1.4-.7-1.6-1v-.3"/>
    <path class="cls-26" d="M343.6,178.7c-3.4,26-35.9,43.2-72.6,38.4-36.8-4.8-63.8-29.7-60.5-55.6,3.4-26,35.9-43.2,72.6-38.4s63.8,29.7,60.5,55.6h0Z"/>
    <path class="cls-24" d="M469.1,194.3C469.1-52.2,169.8-24.7,112.1,62.1c-57.7,86.8-38,148.7-39.8,176.3s-37.1,45.6-37.1,45.6c-29.9,7.6,20.4,45.1,20.4,45.1-4.2,9.9-14,20.1,0,24.9,9.2,3.2,18.4,6.3,27.7,9.5,2.4.8,9.4,4.5,9.9,8.1.5,3.5-12.7,10.1-12.7,10.1-4.5,3.5-7.8,3.5-11,8.3-2.2,3.3,2.9,4.6,6.8,9.4,3.1,3.8,16.3,21,26.3,30.8,8.8,8.5,23.1,17.3,30.2,19.9,5.6,2,18.9,3.1,24.6-.8,3.2-2.2,5.7-6.1,8.3-9,4.8-5.2,13.8-15.7,22-13.8,8.2,1.9,0,10.7-1.9,25.6-3,22.6-1.5,54.7,1.3,56.6,3.1,2.3,188.5-.4,194.9-1-3.6-10-4.4-21.3-5.6-31.8-1.3-11.3-1.7-22.8-1.5-34.2.3-17.4,1.9-34.7,4.7-51.8.5-3.2,1-6.4,1.7-9.6,0,0,88-46.5,88-186.1M102.4,275.3c-4.8,0-8.7-9-8.7-20.2s3.9-20.2,8.7-20.2,8.7,9,8.7,20.2-3.9,20.2-8.7,20.2M228.1,298c-85.5-37.8-129.1-126.7-97.3-198.6C162.6,27.5,257.6,0,343.1,37.7c85.5,37.8,129.1,126.7,97.3,198.6s-126.8,99.5-212.3,61.7h0Z"/>
  </g>
  <g class="cls-20">
    <path class="cls-24" d="M225.7,164.6l.2-2.3,4.3.3,1-4.3,5.1.3-1,4.3,5.8.4c1.1,0,2,.5,2.7,1.4.7.8,1.1,1.8,1,2.9l-.7,10c0,1.1-.5,2-1.4,2.7-.8.7-1.8,1.1-2.9,1l-6-.4.2-2.3,2.9.2c.5,0,1-.1,1.4-.5.4-.4.6-.8.7-1.4l.6-9.3c0-.5-.1-1-.5-1.4-.4-.4-.8-.6-1.4-.7l-3.1-.2-3.7,15.4-5.1-.3,3.7-15.4-4-.3ZM247.6,169l-3.3-9.9,2.3.2,3.3,9.9-2.3-.2Z"/>
    <path class="cls-24" d="M253,164.9l.2-2.3,4.5.3,1.2-2.8,5.1.3-1.2,2.8h2c0,.1-.2,2.5-.2,2.5l-2.8-.2-4.5,10.6-5.1-.3,4.5-10.6-3.7-.2ZM261.7,182.6c-.7,0-1.3-.4-1.8-.9-.5-.6-.7-1.2-.7-1.9l.2-3.2c0-.7.4-1.3.9-1.8.6-.5,1.2-.7,1.9-.7l7.9.5.5-7,5.1.3-.5,7h1.6c0,.1-.2,2.4-.2,2.4h-1.6c0-.1-.2,3.4-.2,3.4,0,.7-.4,1.3-.9,1.8-.6.5-1.2.7-1.9.7l-10.3-.7ZM269.9,177l-4.1-.3c-.4,0-.7,0-1,.3-.3.2-.4.5-.4.9v1.2c-.1.4,0,.7.2,1,.2.3.5.4.9.4l2.8.2c.4,0,.7,0,1-.3.3-.2.4-.5.4-.9l.2-2.5ZM265.8,164.4l.2-2.3,11.5,2.8-.2,2.3-11.5-2.8Z"/>
    <path class="cls-24" d="M283.2,184.1v-14.6c-.1,0-3.3,0-3.3,0l.2-2.3h3c0,0,0-5.6,0-5.6l5.1.3v5.1c0,0,4.1,0,4.1,0l.8-4.8,5.1.3-.7,4.5h3.8c.6,0,1.1.1,1.6.5.5.3.9.7,1.2,1.3.3.5.4,1.1.4,1.7l-.3,4.7c0,1.1-.5,2-1.4,2.7-.8.7-1.8,1.1-2.9,1l-5.7-.4.2-2.3,2.6.2c.5,0,1-.1,1.4-.5.4-.4.6-.8.7-1.4l.2-3.4c0-.3,0-.6-.2-.8-.1-.3-.3-.5-.6-.6-.2-.2-.5-.2-.8-.2h-9.5s.2,14.9.2,14.9l-5.1-.3Z"/>
    <path class="cls-24" d="M306.1,185.6l5.2-22,5.1.3-2.3,9.9,5.6.4c.7,0,1.3.4,1.8.9.5.6.7,1.2.7,1.9l-.4,6c0,.4,0,.7.3,1,.2.3.5.4.9.4h1.3c.4.1.7,0,1-.2.3-.2.4-.5.4-.9l.6-8.6,5.1.3-.6,9.7c0,.7-.4,1.3-.9,1.8-.6.5-1.2.7-1.9.7l-8.8-.6c-.7,0-1.3-.4-1.8-.9-.5-.6-.7-1.2-.7-1.9l.4-6c0-.4,0-.7-.3-1-.2-.3-.5-.4-.9-.4h-2.2c0-.1-2.3,9.7-2.3,9.7l-5.1-.3Z"/>
  </g>
  <g class="cls-20">
    <path class="cls-24" d="M167.8,64.1l-.9-2.1,3.8-1.6-1-4.1,4.5-1.9,1,4.1,5.1-2.2c1-.4,1.9-.4,2.9,0,1,.4,1.7,1.1,2.1,2l3.8,8.8c.4,1,.4,1.9,0,2.9-.4,1-1.1,1.7-2,2.1l-5.3,2.3-.9-2.1,2.5-1.1c.5-.2.8-.6,1-1,.2-.5.2-1,0-1.5l-3.5-8.2c-.2-.5-.6-.8-1-1-.5-.2-1-.2-1.5,0l-2.7,1.2,3.5,14.7-4.5,1.9-3.5-14.7-3.5,1.5ZM188.4,58.3l-7.1-7,2.1-.9,7.1,7-2.1.9Z"/>
    <path class="cls-24" d="M191.2,52.5l-.9-2.1,4-1.7-.2-2.9,4.5-1.9.2,2.9,1.8-.8.9,2.1-2.5,1.1.8,10.9-4.5,1.9-.8-10.9-3.3,1.4ZM201.9,46.5l-.9-2.1,11-2.6.9,2.1-11,2.6ZM206.3,63.8c-.6.3-1.3.3-1.9,0-.7-.3-1.1-.7-1.4-1.4l-1.2-2.8c-.3-.6-.3-1.3,0-1.9.3-.7.7-1.1,1.4-1.4l6.9-3-2.7-6.2,4.5-1.9,2.7,6.2,1.4-.6.9,2.1-1.4.6,1.3,3.1c.3.6.3,1.3,0,1.9-.3.7-.7,1.1-1.3,1.4l-9.1,3.9ZM210.9,55.4l-3.6,1.5c-.3.1-.6.4-.7.7-.1.3-.1.6,0,1l.4,1c.1.3.4.6.7.7.3.1.6.1,1,0l2.4-1c.3-.1.6-.4.7-.7.1-.3.1-.6,0-1l-.9-2.2Z"/>
    <path class="cls-24" d="M214.2,38.1l4.5-1.9,3,6.9.8,2,2.6-2.2.9,2.1-4.3,4.1c-.3.3-.7.5-1.1.5-.4,0-.8,0-1.2-.2-.4-.2-.6-.5-.8-.9l-.5-1.2-.9-2.1-3-6.9ZM232.7,52.4c1.8-4.8,1.7-9.5,0-14l-3-7,4.5-1.9,3.7,8.6c1.2,5.3,1.2,9.3,0,12.2l-5.1,2.2Z"/>
    <path class="cls-24" d="M168,97.8l-.9-2.1,3.9-1.7-1.8-3.6,6-2.6,1.8,3.6,5.7-2.4,6-2.6,2.4,8.2-6,2.6-1.8-6-5.3,2.3,6.8,13.6-6,2.6-6.8-13.6-4,1.7Z"/>
    <path class="cls-24" d="M190.5,83.8l-.9-2.1,7.7-3.3.9,2.1-7.7,3.3ZM198,101.4l-.9-2.1,8.5-3.7-.8-18.6,6.9-3,1.1,21-4.9,2.1-2,.8-7.8,3.4Z"/>
    <path class="cls-24" d="M216.2,77.7l-.9-2.1,7.3-3.2-2.1-4.1,6-2.6,2.1,4.1,8.2-3.5.9,2.1-8,3.5,2.6,4.9,7.6-3.3.9,2.1-7.5,3.2,3.2,6.1-6,2.6-3.2-6.1-8,3.5-.9-2.1,7.9-3.4-2.6-4.9-7.5,3.2Z"/>
    <path class="cls-24" d="M242.1,72l-.9-2.1,21.5-9.2.9,2.1-21.5,9.2Z"/>
    <path class="cls-24" d="M179.3,123.7l-.9-2.1,21.5-9.2-4.9,13.4c-.1.3-.1.6,0,.9,0,.3.3.5.5.7l7.9,5.6-5.2,2.2-6.9-4.9c-.6-.4-.9-.9-1.1-1.5-.2-.6-.2-1.3,0-1.9l3.6-9.4-14.4,6.2ZM198.5,124l-1.7-2.6,2.3-1,1.7,2.6-2.3,1ZM201.3,122.8l-1.7-2.6,2.3-1,1.7,2.6-2.3,1Z"/>
    <path class="cls-24" d="M215.3,127.9l-4.5,1.9c-3.4-6.3-6.2-12.8-8.4-19.6l4.5-1.9c2.2,6.8,5,13.3,8.4,19.6ZM211.4,111.9l-.9-2.1,7.4-3.2-1.1-2.5,4.5-1.9,1.1,2.5,2.1-.9.9,2.1-2.1.9,3.2,7.5,2.3-.5.9,2.1-2.3.5,1.3,3.1c.3.6.3,1.3,0,1.9-.3.7-.7,1.1-1.4,1.4l-6,2.6c-1,.4-1.9.4-2.9,0-1-.4-1.7-1.1-2.1-2l-1.2-2.8c-.3-.6-.3-1.3-.2-1.9.1-.7.4-1.2.9-1.7.5-.5,1-.8,1.7-.9l4-.8-2.8-6.5-7.4,3.2ZM223.1,122.1c.3-.1.6-.4.7-.7.1-.3.1-.6,0-1l-1.4-3.2-1.2.2c-.3,0-.6.2-.8.4-.2.2-.4.5-.5.8,0,.3,0,.7,0,1l.6,1.4c.2.5.5.8,1,1,.5.2,1,.2,1.4,0Z"/>
    <path class="cls-24" d="M227.8,104.7l-.9-2.1,4-1.7-.2-2.9,4.5-1.9.2,2.9,1.8-.8.9,2.1-2.5,1.1.8,10.9-4.5,1.9-.8-10.9-3.3,1.4ZM238.5,98.7l-.9-2.1,11-2.6.9,2.1-11,2.6ZM242.9,116c-.6.3-1.3.3-1.9,0-.7-.3-1.1-.7-1.4-1.4l-1.2-2.8c-.3-.6-.3-1.3,0-1.9.3-.7.7-1.1,1.4-1.4l6.9-3-2.7-6.2,4.5-1.9,2.7,6.2,1.4-.6.9,2.1-1.4.6,1.3,3.1c.3.6.3,1.3,0,1.9-.3.7-.7,1.1-1.4,1.4l-9.1,3.9ZM247.5,107.6l-3.6,1.5c-.3.1-.6.4-.7.7-.1.3-.1.6,0,1l.4,1c.1.3.4.6.7.7.3.1.6.1,1,0l2.4-1c.3-.1.6-.4.7-.7.1-.3.1-.6,0-1l-.9-2.2Z"/>
    <path class="cls-24" d="M249.7,89.9l4.5-1.9,4.9,11.5c.8,1.7,1.6,3.1,2.4,4.1l4-3.5,1,2.2-7.2,6.7c-1.6-1.6-3.1-4.2-4.6-7.6l-4.9-11.5ZM273.8,99l-3.7-8.6c-1-2.2-2.5-4.2-4.4-5.9l4.6-2c1.9,1.8,3.3,3.8,4.3,6l3.7,8.6-4.5,1.9Z"/>
  </g>
  <g class="cls-20">
    <path class="cls-24" d="M253.2,33.6l.6-2.3,24.2,6.2-9.6,4.9c.4,0,.7.3.8.6s.2.7.2,1l-.8,3.2c-.1.5,0,1.1.2,1.5s.7.8,1.2.9l4.5,1.2-.6,2.3-7.6-2c-1.1-.3-1.9-.9-2.5-1.9-.6-1-.7-2-.4-3.1l.4-1.6-7.7,4-6.3-1.6,18.7-9.5-15.2-3.9ZM257.3,28.3l.7-2.7,18.9,5.9-.7,2.7-18.9-5.9Z"/>
    <path class="cls-24" d="M282.3,31.9l5,1.3-3.3,12.9c-.5,2-.7,3.7-.7,5l5.7-.4-.6,2.5-10.5,1c-.3-2.4,0-5.5,1.1-9.5l3.3-12.9ZM296.7,55.3l2.5-9.7c.6-2.5.6-5.1.1-7.9l5.2,1.3c.4,2.8.3,5.4-.2,7.9l-2.5,9.7-5-1.3Z"/>
    <path class="cls-24" d="M309.6,62.4c-.4-.1-.7-.3-1-.7-.2-.4-.3-.8-.2-1.2,0-.2.2-.5.3-.7.2-.2.3-.4.6-.5l10.7-6.5-6.4-1.6-7.1-1.8.6-2.3,3,.8,7.7-4.3-7.4-1.9.6-2.3,15.5,4-10.6,6,7.1,1.8,7.1,1.8,1.3.3-.6,2.3-3.5-.9-9.3,5.7c-.2.1-.3.2-.4.4s-.1.4,0,.6c0,.2.1.4.2.5s.3.2.5.3l6.9,1.8-.6,2.3-14.9-3.8ZM326.5,46.6l.3-3.3,2.6.7-.3,3.3-2.6-.7ZM329.7,47.4l.3-3.3,2.6.7-.3,3.3-2.6-.7Z"/>
    <path class="cls-24" d="M333.9,54.4l.6-2.3,18.9,4.9c1.4.4,2.5,1.2,3.3,2.5.8,1.3,1,2.7.6,4.1l-1.3,5.2c-.4,1.4-1.2,2.5-2.5,3.3-1.3.8-2.7,1-4.1.6l-15.6-4,.6-2.3,13.1,3.4c.7.2,1.4,0,2.1-.3s1.1-.9,1.3-1.7l1.5-5.8c.2-.7,0-1.4-.3-2.1s-.9-1.1-1.7-1.3l-16.5-4.2ZM338.9,48.9l.6-2.3,18.5,6.5-.6,2.3-18.5-6.5Z"/>
  </g>
  <g class="cls-20">
    <path class="cls-24" d="M275.4,79.6l.2-3.6.2-2.4,6.9.5h2.1c0,.1.3-4.4.3-4.4l6.9.5-.3,4.5h2.1c0,.1,6.9.6,6.9.6l-4.4,18h-1.4c0,0-5.5-.5-5.5-.5l-3-.2.2-2.4,3.4.2,3.2-13.3-10.6-.7-.2,3.6-6.9-.5Z"/>
    <path class="cls-24" d="M302.3,93.6l.2-2.3,8.2.5,1-14.3-7.7-.5.2-2.3,7.9.5,6.3.4,7.9.5-.2,2.3-7.7-.5-1,14.3,8.2.5-.2,2.3-8.4-.6-6.3-.4-8.4-.6Z"/>
    <path class="cls-24" d="M331.4,75.1l.2-2.4,18,1.2,6.9.5-10.4,22.1-6.9-.5,9.3-19.8-17.1-1.1ZM348.5,94.9l.8-4,2.8.2-.8,4-2.8-.2ZM351.7,95.1l.8-4,2.8.2-.8,4-2.8-.2Z"/>
  </g>
  <g class="cls-20">
    <path class="cls-24" d="M277.4,106l.2-2.4,10.2.7,6.9.5,7.8.5-.2,2.4-8.2-.5-2.8,12-6.9-.5,2.8-12-9.8-.7ZM278,97.8l.2-2.4,24.9,1.7-.2,2.4-24.9-1.7ZM295.4,112.1l.8-4,2.8.2-.8,4-2.8-.2ZM298.7,112.3l.8-4,2.8.2-.8,4-2.8-.2Z"/>
    <path class="cls-24" d="M305.3,105.5l.2-2.4,2.7.2.4-5.8,6.9.5-.4,5.8,5.4.4.2-1.1,6.9.5-.2,1.1,2.9.2-.2,2.4-3.1-.2-2.2,14.4-6.9-.5,2.2-14.4-5.2-.3-.3,4.4-6.9-.5.3-4.4-2.7-.2ZM321.1,102.5l.8-4,3.9.3-.8,4-3.9-.3ZM326,102.8l.8-4,3.9.3-.8,4-3.9-.3Z"/>
    <path class="cls-24" d="M341.1,122.4l.9-14.1-9.2,2.1.3-3.9,25.5-5.7-.3,3.9-9.2,2.1-1.1,16.2-6.9-.5Z"/>
    <path class="cls-24" d="M359.8,123.7l.2-2.5,9.9.7,8.2-18.1,8,.5-9.2,20.5-5.7-.4-2.3-.2-9.1-.6ZM361.1,103.3l.2-2.4,8.9.6-.2,2.4-8.9-.6Z"/>
  </g>
  <g class="cls-20">
    <path class="cls-24" d="M357.6,76.4l1-1.5,1.7,1.2,1.8-2.6,4.3,3-1.8,2.6,3.3,2.3,2-2.4,4.3,3-2,2.4,1.9,1.3-1,1.5-2-1.4-7.8,9.6-4.3-3,7.8-9.6-3.2-2.3-2.7,3.8-4.3-3,2.7-3.8-1.7-1.2Z"/>
    <path class="cls-24" d="M372.1,92.3l1-1.5,15.5,10.9-1,1.5-15.5-10.9Z"/>
    <path class="cls-24" d="M394.8,96.6l4.3,3-3,4.3,12.3,6.4-1.2,1.7-12.3-6.4-4.7,6.7,11.2,7.9-1,1.5-11.2-7.9-4.3-3,1-1.5,4.3-6.1,1.2-1.7,3.4-4.8ZM402.6,106l2.1-2.3,2.4,1.7-2.1,2.3-2.4-1.7ZM405.7,108.2l2.1-2.3,2.4,1.7-2.1,2.3-2.4-1.7Z"/>
    <path class="cls-24" d="M411,110.2l1-1.5,10.5,7.4,5,3.5-10.7,3.5h0s.7,10.7.7,10.7l-3-2.1-.5-7.7-7,2.3-5-3.5,18.3-6-9.4-6.6Z"/>
    <path class="cls-24" d="M426.9,124.3l1-1.5,4.1,2.9,1.8-1.5,3.2,2.3-1.8,1.5,5.8,4.1-1,1.5-6.2-4.4-2,1.6,6.7,4.8-1,1.5-7.1-5-4,3.3c-.3.2-.5.5-.5.8,0,.3,0,.7,0,1s.3.6.6.8l5.2,3.7c.2.2.5.2.8.2.3,0,.5-.2.7-.4l2.3-3.2,3.2,2.3-2.7,3.8c-.3.5-.8.7-1.3.8-.6,0-1.1,0-1.5-.3l-9.5-6.7c-.6-.4-1-.9-1.2-1.6-.2-.7-.3-1.3,0-2,.2-.7.5-1.2,1.1-1.7l3.8-3.2-2.7-1.9,1-1.5,3.1,2.2,2-1.6-3.7-2.6Z"/>
  </g>
  <g class="cls-20">
    <path class="cls-24" d="M339.4,145.2v-1.8c.1,0,13.8,1,13.8,1l1-12.5-13.7-1v-1.8c.1,0,13.8,1,13.8,1l5.2.4v1.7c-.1,0-1.1,12.6-1.1,12.6v1.7c-.1,0-5.4-.4-5.4-.4l-13.7-1Z"/>
    <path class="cls-24" d="M361,139.1v-1.8c.1,0,19,1.4,19,1.4v1.8c-.1,0-19-1.4-19-1.4Z"/>
    <path class="cls-24" d="M382,139.6v-1.8c.1,0,13.7,1,13.7,1l5.2.4-2.6,10.5-5.2-.4,2.2-8.7-13.3-1ZM382.5,133.6v-1.8c.1,0,19,1.4,19,1.4v1.8c-.1,0-19-1.4-19-1.4Z"/>
  </g>
  <g class="cls-20">
    <path class="cls-24" d="M351.5,152.9v-1.8c.1,0,8.1.6,8.1.6l-.9-1.8,4.7.4.9,1.8,6.7.5v1.8c-.1,0-5.7-.4-5.7-.4l.9,1.8,4.5.3v1.8c-.1,0-3.6-.3-3.6-.3l1.8,3.8-4.7-.4-7.7-.6c-.4,0-.8,0-1.2.4-.3.3-.5.6-.5,1.1v1.9c-.2.4,0,.8.2,1.1.3.3.6.5,1.1.5l12.4,1v1.8c-.1,0-15-1.1-15-1.1-.9,0-1.6-.4-2.2-1.1-.6-.7-.8-1.4-.8-2.3l.2-2.4c0-.9.4-1.6,1.1-2.2.7-.6,1.4-.8,2.3-.8l9,.7-.9-1.8-11.2-.9v-1.8c.1,0,10.2.8,10.2.8l-.9-1.8-9-.7Z"/>
    <path class="cls-24" d="M381.1,153.5l4,.3-.2,2.8,6.2.5v1.9c-.1,0-6.3-.5-6.3-.5l-.4,5.7,6.1,2v1.8c-.1,0-6.2-2-6.2-2v1.4c-.1.5-.4,1-.8,1.3-.4.3-.9.5-1.5.5l-7.1-.5c-.7,0-1.3-.3-1.8-.9-.5-.5-.7-1.1-.7-1.8l.2-2.5c0-.5.2-.9.5-1.3.3-.4.7-.6,1.2-.8.5-.1,1-.1,1.5,0l4.7,1.5.7-9.5ZM379.2,167.2c.3,0,.5,0,.6-.2.2-.1.3-.3.3-.5v-1.6c.1,0-2.7-.9-2.7-.9-.2,0-.4,0-.5,0-.2,0-.3.1-.4.3-.1.1-.2.3-.2.5v1.3c-.1.3,0,.6.2.8.2.2.5.3.8.4h1.9Z"/>
    <path class="cls-24" d="M394.3,159.6v-1.9c.1,0,15.3,1.2,15.3,1.2,1.1,0,2.1.6,2.9,1.5.8.9,1.1,1.9,1,3.1l-.3,4.1c0,1.1-.6,2.1-1.5,2.9-.9.8-1.9,1.1-3.1,1l-12.4-1v-1.8c.1,0,10.7.8,10.7.8.6,0,1.1-.1,1.5-.5.4-.4.7-.9.7-1.4l.4-4.6c0-.6-.1-1.1-.5-1.5-.4-.4-.9-.7-1.4-.7l-13.2-1ZM397.4,154.7v-1.9c.1,0,15.2,2.5,15.2,2.5v1.8c-.1,0-15.2-2.5-15.2-2.5Z"/>
    <path class="cls-24" d="M419.2,172.3c-1.1,0-2.1-.6-2.9-1.5-.8-.9-1.1-1.9-1-3.1l.2-2.5c0-.7.3-1.4.8-1.9.5-.5,1.1-.9,1.8-1l3.7-.6-3.6-7.3,4.7.4,3.1,6.2,9.4-1.7-.2,2.2-14.4,2.6c-.4,0-.7.2-.9.5-.2.3-.4.6-.4.9l-.2,2.8c0,.6.1,1.1.5,1.5.4.4.9.7,1.4.7l13.2,1v1.8c-.1,0-15.3-1.2-15.3-1.2Z"/>
  </g>
  <g class="cls-20">
    <path class="cls-24" d="M368.2,191.9l.8-11-7.2,1.5.2-3,19.8-4.2-.2,3-7.2,1.5-1,12.6-5.4-.4Z"/>
    <path class="cls-24" d="M383.4,183.9v-1.8c.1,0,14.1,1.1,14.1,1.1l5.4.4-2.7,10.7-5.4-.4,2.3-8.9-13.7-1ZM383.9,177.8v-1.8c.1,0,19.5,1.5,19.5,1.5v1.8c-.1,0-19.5-1.5-19.5-1.5Z"/>
    <path class="cls-24" d="M405.6,177l5.4.4-1.1,14.2,14.1-.7-.2,2.8-19.5,1,.2-2.8,1.1-14.9Z"/>
    <path class="cls-24" d="M338.9,199.7v-1.9c.1,0,14.1,1.1,14.1,1.1l5.4.4-8.2,17.1-5.4-.4,7.4-15.3-13.2-1ZM352.1,215.2l.6-3.1,2.2.2-.6,3.1-2.2-.2ZM354.6,215.4l.6-3.1,2.2.2-.6,3.1-2.2-.2Z"/>
    <path class="cls-24" d="M360.6,199.5l5.4.4-1.1,14.2,14.1-.7-.2,2.8-19.5,1,.2-2.8,1.1-14.9Z"/>
    <path class="cls-24" d="M380.8,218.8v-1.9c.1,0,7.8.6,7.8.6l6.5-14,6.2.5-7.3,15.8-4.5-.3h-1.8c0-.1-7.1-.7-7.1-.7ZM382,203v-1.9c.1,0,7,.5,7,.5v1.9c-.1,0-7-.5-7-.5Z"/>
    <path class="cls-24" d="M402.7,215.5l2.2-12.6,5.4.4-.6,3.5,7.7.6,5.4.4-.3,1.8-1.1,6.3h.6c0,.1-.1,2-.1,2l-.8-.2-.7,4-5.4-.4.8-4.8-7.5-1.6v.9c-.1,0-5.5-.4-5.5-.4ZM409.3,208.7l-.8,4.6,7.5,1.6,1-5.6-7.7-.6ZM415.4,207l.6-3.1,3,.2-.6,3.1-3-.2ZM419.3,207.3l.6-3.1,3,.2-.6,3.1-3-.2Z"/>
    <path class="cls-24" d="M424.4,214.2v-1.8c.1,0,19.5,1.5,19.5,1.5v1.8c-.1,0-19.5-1.5-19.5-1.5Z"/>
  </g>
  <g class="cls-20">
    <path class="cls-24" d="M328,238.6l1-12.5-8.7,11.9-3.4-.3,8.7-11.8-7.6-.6v-1.8c.1,0,11.1.8,11.1.8l.3-3.5,5.4.4-.3,3.5,3,.2v1.8c-.1,0-3.2-.2-3.2-.2l-1,12.4-5.4-.4Z"/>
    <path class="cls-24" d="M358,240.9h-.5s-4.9-.4-4.9-.4l-8.6-.7-5.4-.4,4.5-17.4,5.4.4-4,15.6,7.8.6-.9-6.2,5.4.4,1.2,8.1Z"/>
    <path class="cls-24" d="M360.8,232v-1.8c.1,0,14.1,1.1,14.1,1.1l5.4.4-2.7,10.7-5.4-.4,2.3-8.9-13.7-1ZM361.3,225.9v-1.8c.1,0,19.5,1.5,19.5,1.5v1.8c-.1,0-19.5-1.5-19.5-1.5Z"/>
    <path class="cls-24" d="M388.6,243.3l.8-11-7.2,1.5.2-3,19.8-4.2-.2,3-7.2,1.5-1,12.6-5.4-.4Z"/>
    <path class="cls-24" d="M404.4,228.6v-1.9c.1,0,13.3,1,13.3,1l6.2.5-7.6,8.7h0s6.2,9,6.2,9l-3.7-.3-4.4-6.5-5,5.7-6.2-.5,13-14.9-11.8-.9Z"/>
  </g>
  <g class="cls-20">
    <path class="cls-24" d="M267.9,226.4l3.9-.8-7.1,8.1,11.5,4.4-3.9.8-11.5-4.4,7.1-8.1Z"/>
    <path class="cls-24" d="M279.2,237.4c-.4,0-.8,0-1.2-.2-.4-.2-.6-.6-.7-1l-.4-1.8c0-.4,0-.8.2-1.2.2-.4.6-.6,1-.7l5.1-1-.4-2.2-6.6,1.3-.3-1.3,6.6-1.3-.3-1.6-6.6,1.3-.3-1.3,6.6-1.3-.3-1.5,2.9-.6.3,1.5,4.5-.9.3,1.3-4.5.9.3,1.6,4.5-.9.3,1.3-4.5.9.4,2.2,4.5-.9.3,1.3-4.5.9.4,2c0,.4,0,.8-.2,1.2-.2.4-.6.6-1,.7l-6.5,1.3ZM283.6,232.8l-2.9.6c-.2,0-.4.2-.5.3-.1.2-.2.4-.1.6v.7c.2.2.3.4.5.5.2.1.4.2.6.1l2.1-.4c.2,0,.4-.2.5-.3.1-.2.2-.4.1-.6l-.3-1.4Z"/>
    <path class="cls-24" d="M249.9,261.2v-5.9c-.1,0,2.8-.6,2.8-.6v5.9c.1,0-2.8.6-2.8.6ZM250.2,251.4l-.4-1.8,9.8-1,.4,1.8-9.8,1ZM252.9,252.1l3.7-.7c.2,1,.7,2.3,1.5,3.7.9,1.4,1,3.5.4,6.1l-3.7.7c.6-2.6.4-4.6-.4-6.1-.9-1.4-1.4-2.7-1.5-3.7ZM263.9,258.3l-2.9.6-2.2-5.5,2.9-.6,2.2,5.5ZM259.8,248.6c0-.3,0-.5.2-.8.2-.2.4-.4.7-.4.3,0,.5,0,.8.2.2.2.4.4.4.7s0,.5-.2.8c-.2.2-.4.4-.7.4-.3,0-.5,0-.8-.2-.2-.2-.4-.4-.4-.7ZM260.4,248.5c0,.1.1.3.2.3.1,0,.2.1.4,0,.1,0,.3-.1.3-.2,0-.1.1-.2,0-.4,0-.1-.1-.3-.2-.3-.1,0-.3-.1-.4,0-.1,0-.3.1-.3.2,0,.1,0,.3,0,.4Z"/>
    <path class="cls-24" d="M264.7,253.9l-.3-1.3,14.1-2.9.3,1.3-14.1,2.9Z"/>
    <path class="cls-24" d="M279.4,246.2l-.3-1.3,5.9-1.2-1-1.1,3.4-.7,1,1.1,4.8-1,.3,1.3-3.9.8,3.8,3.9-9,1.8c-.3,0-.6.2-.7.5-.2.3-.2.6-.2.9l.4,2.1c0,.3.2.6.5.7.3.2.6.2.9.2l9-1.8.3,1.3-10.8,2.2c-.6.1-1.2,0-1.8-.3-.5-.4-.9-.9-1-1.5l-.5-2.5c-.1-.6,0-1.2.3-1.8.4-.5.9-.9,1.5-1l6.5-1.3-2.7-2.8-6.7,1.4Z"/>
    <path class="cls-24" d="M297.2,253.3l-.5-13.3,2.9-.6.2,5.9,3.2-.7c.4,0,.8,0,1.2.2.4.2.6.6.7,1l.7,3.5c0,.2.2.4.3.5.2.1.4.2.6.1h.7c.2-.2.4-.3.5-.5.1-.2.2-.4.1-.6l-1-5,2.9-.6,1.1,5.6c0,.4,0,.8-.2,1.2-.2.4-.6.6-1,.7l-5.1,1c-.4,0-.8,0-1.2-.2-.4-.2-.6-.6-.7-1l-.7-3.5c0-.2-.2-.4-.3-.5-.2-.1-.4-.2-.6-.1l-1.3.3.2,5.9-2.9.6Z"/>
  </g>
  <g class="cls-20">
    <path class="cls-24" d="M210.2,279.2l-.3-1.7,17.9-3.6-4.8,6.3c.3,0,.5,0,.8.1.2.2.4.4.4.6l.5,2.4c0,.4.3.7.6.9.3.2.7.3,1.1.2l3.4-.7.3,1.7-5.6,1.1c-.8.2-1.5,0-2.2-.4s-1.1-1.1-1.3-1.9l-.2-1.2-3.8,5.1-4.7.9,9.3-12.2-11.3,2.3ZM211.2,274.5l-.4-2,14.3-2.2.4,2-14.3,2.2Z"/>
    <path class="cls-24" d="M228.8,268.8l3.7-.8,1.9,9.6c.3,1.5.7,2.6,1.1,3.5l3.6-2.1.4,1.9-6.6,4c-.9-1.5-1.7-3.7-2.3-6.6l-1.9-9.6ZM245.8,279.6l-1.5-7.2c-.4-1.8-1.2-3.6-2.4-5.3l3.8-.8c1.2,1.7,1.9,3.4,2.4,5.3l1.5,7.2-3.7.8Z"/>
    <path class="cls-24" d="M256.5,280.2c-.3,0-.6,0-.9-.2-.3-.2-.4-.4-.5-.7,0-.2,0-.4,0-.6,0-.2.1-.4.2-.5l5-7.7-4.7,1-5.3,1.1-.3-1.7,2.2-.5,3.7-5.3-5.5,1.1-.3-1.7,11.5-2.3-5.1,7.3,5.2-1.1,5.3-1.1.9-.2.3,1.7-2.6.5-4.3,6.7c0,.1-.1.3-.1.4,0,.1,0,.3.1.4s.2.2.3.3c.1,0,.3,0,.4,0l5.1-1,.3,1.7-11,2.2ZM262.6,264.4l-.9-2.3,1.9-.4.9,2.3-1.9.4ZM264.9,263.9l-.9-2.3,1.9-.4.9,2.3-1.9.4Z"/>
    <path class="cls-24" d="M270,267.2l-.3-1.7,14-2.8c1.1-.2,2.1,0,3,.6.9.6,1.5,1.4,1.7,2.5l.8,3.8c.2,1.1,0,2.1-.6,3-.6.9-1.4,1.5-2.5,1.7l-11.5,2.3-.3-1.7,9.7-2c.5-.1.9-.4,1.3-.9.3-.5.4-1,.3-1.5l-.9-4.3c-.1-.5-.4-1-.9-1.3-.5-.3-1-.4-1.5-.3l-12.2,2.5ZM271.5,261.9l-.3-1.7,14.2-1.6.3,1.7-14.2,1.6Z"/>
  </g>
  <g class="cls-20">
    <path class="cls-24" d="M229.2,292l-.2-1.2,12.2-2.5-3.3,4.3c.2,0,.4,0,.5.1.2.1.3.3.3.4l.3,1.6c0,.3.2.5.4.6.2.2.5.2.8.1l2.3-.5.2,1.2-3.9.8c-.5.1-1.1,0-1.5-.3-.5-.3-.8-.7-.9-1.3l-.2-.8-2.6,3.5-3.2.6,6.3-8.4-7.7,1.6ZM229.9,288.8l-.3-1.4,9.8-1.5.3,1.4-9.8,1.5Z"/>
    <path class="cls-24" d="M241.9,284.9l2.6-.5,1.3,6.5c.2,1,.5,1.8.8,2.4l2.5-1.4.3,1.3-4.5,2.7c-.6-1-1.2-2.5-1.6-4.5l-1.3-6.5ZM253.5,292.3l-1-4.9c-.3-1.3-.8-2.5-1.7-3.6l2.6-.5c.8,1.2,1.3,2.4,1.6,3.6l1,4.9-2.6.5Z"/>
    <path class="cls-24" d="M260.9,292.7c-.2,0-.4,0-.6-.1-.2-.1-.3-.3-.3-.5,0-.1,0-.2,0-.4,0-.1,0-.3.1-.4l3.4-5.3-3.2.7-3.6.7-.2-1.2,1.5-.3,2.5-3.6-3.8.8-.2-1.2,7.8-1.6-3.5,5,3.6-.7,3.6-.7h.6c0-.1.2,1,.2,1l-1.8.4-2.9,4.6c0,0,0,.2,0,.3,0,.1,0,.2,0,.3,0,0,.1.1.2.2,0,0,.2,0,.3,0l3.5-.7.2,1.2-7.5,1.5ZM265,281.9l-.6-1.5,1.3-.3.6,1.5-1.3.3ZM266.6,281.6l-.6-1.5,1.3-.3.6,1.5-1.3.3Z"/>
    <path class="cls-24" d="M270.1,283.8l-.2-1.2,9.6-1.9c.7-.1,1.4,0,2,.4.6.4,1,1,1.2,1.7l.5,2.6c.1.7,0,1.4-.4,2-.4.6-1,1-1.7,1.2l-7.9,1.6-.2-1.2,6.6-1.4c.4,0,.6-.3.9-.6.2-.3.3-.7.2-1l-.6-2.9c0-.4-.3-.7-.6-.9-.3-.2-.7-.3-1-.2l-8.4,1.7ZM271.1,280.2l-.2-1.2,9.7-1.1.2,1.2-9.7,1.1Z"/>
  </g>
  <g class="cls-20">
    <path class="cls-24" d="M242.3,300.1l-.2-.9,9.2-1.9-2.5,3.3c.1,0,.3,0,.4,0,.1,0,.2.2.2.3l.2,1.2c0,.2.2.4.3.5.2.1.4.2.6.1l1.7-.4.2.9-2.9.6c-.4,0-.8,0-1.2-.2-.4-.2-.6-.6-.7-1v-.6c-.1,0-2.1,2.6-2.1,2.6l-2.4.5,4.8-6.3-5.8,1.2ZM242.8,297.7l-.2-1,7.4-1.1.2,1-7.4,1.1Z"/>
    <path class="cls-24" d="M251.9,294.8l1.9-.4,1,4.9c.2.8.4,1.4.6,1.8l1.9-1.1.2,1-3.4,2.1c-.5-.8-.9-1.9-1.2-3.4l-1-4.9ZM260.7,300.3l-.8-3.7c-.2-.9-.6-1.8-1.3-2.7l2-.4c.6.9,1,1.8,1.2,2.7l.8,3.7-1.9.4Z"/>
    <path class="cls-24" d="M266.2,300.6c-.2,0-.3,0-.4,0-.1,0-.2-.2-.3-.4,0,0,0-.2,0-.3,0,0,0-.2.1-.3l2.6-4-2.4.5-2.7.6-.2-.9,1.2-.2,1.9-2.7-2.8.6-.2-.9,5.9-1.2-2.6,3.8,2.7-.5,2.7-.6h.5c0,0,.2.8.2.8l-1.3.3-2.2,3.5c0,0,0,.1,0,.2s0,.1,0,.2c0,0,.1.1.2.1,0,0,.1,0,.2,0l2.6-.5.2.9-5.7,1.2ZM269.3,292.5l-.4-1.2,1-.2.4,1.2-1,.2ZM270.5,292.2l-.4-1.2,1-.2.4,1.2-1,.2Z"/>
    <path class="cls-24" d="M273.1,293.9l-.2-.9,7.2-1.5c.5-.1,1.1,0,1.5.3.5.3.8.7.9,1.3l.4,2c.1.5,0,1.1-.3,1.5-.3.5-.7.8-1.3.9l-5.9,1.2-.2-.9,5-1c.3,0,.5-.2.6-.4.2-.2.2-.5.2-.8l-.4-2.2c0-.3-.2-.5-.4-.6-.2-.2-.5-.2-.8-.2l-6.3,1.3ZM273.9,291.2l-.2-.9,7.4-.8.2.9-7.4.8Z"/>
  </g>
  <g class="cls-20">
    <path class="cls-24" d="M257,306v-.6c-.1,0,5.9-1.2,5.9-1.2l-1.6,2.1c0,0,.2,0,.3,0,0,0,.1.1.1.2l.2.8c0,.1,0,.2.2.3.1,0,.2.1.4,0l1.1-.2v.6c.1,0-1.8.4-1.8.4-.3,0-.5,0-.8-.1-.2-.2-.4-.4-.4-.6v-.4c0,0-1.4,1.7-1.4,1.7l-1.6.3,3.1-4.1-3.8.8ZM257.3,304.4v-.7c-.1,0,4.7-.7,4.7-.7v.7c.1,0-4.7.7-4.7.7Z"/>
    <path class="cls-24" d="M263.3,302.5l1.3-.3.7,3.2c.1.5.2.9.4,1.2l1.2-.7v.6c.1,0-2.1,1.4-2.1,1.4-.3-.5-.6-1.2-.8-2.2l-.7-3.2ZM269,306.2l-.5-2.4c-.1-.6-.4-1.2-.8-1.8l1.3-.3c.4.6.7,1.2.8,1.8l.5,2.4-1.3.3Z"/>
    <path class="cls-24" d="M272.6,306.4c-.1,0-.2,0-.3,0,0,0-.1-.1-.2-.2,0,0,0-.1,0-.2s0-.1,0-.2l1.7-2.6-1.6.3-1.8.4v-.6c-.1,0,.6-.2.6-.2l1.2-1.8-1.9.4v-.6c-.1,0,3.8-.8,3.8-.8l-1.7,2.5,1.8-.4,1.8-.4h.3c0,0,.1.5.1.5l-.9.2-1.5,2.3s0,0,0,.1c0,0,0,0,0,.1,0,0,0,0,.1,0,0,0,0,0,.1,0l1.7-.4v.6c.1,0-3.6.8-3.6.8ZM274.7,301l-.3-.8h.7c0-.1.3.6.3.6h-.7ZM275.4,300.9l-.3-.8h.7c0-.1.3.6.3.6h-.7Z"/>
    <path class="cls-24" d="M277.1,302v-.6c-.1,0,4.6-1,4.6-1,.4,0,.7,0,1,.2.3.2.5.5.6.8l.3,1.3c0,.4,0,.7-.2,1-.2.3-.5.5-.8.6l-3.9.8v-.6c-.1,0,3.2-.7,3.2-.7.2,0,.3-.1.4-.3.1-.2.1-.3,0-.5l-.3-1.4c0-.2-.1-.3-.3-.4-.2-.1-.3-.1-.5,0l-4.1.8ZM277.7,300.2v-.6c-.1,0,4.7-.5,4.7-.5v.6c.1,0-4.7.5-4.7.5Z"/>
  </g>
  <g class="cls-20">
    <path class="cls-24" d="M270.5,309.4v-.4c0,0,3.9-.8,3.9-.8l-1.1,1.4c0,0,.1,0,.2,0,0,0,0,0,0,.1v.5c.1,0,.2.2.2.2,0,0,.2,0,.2,0l.8-.2v.4c0,0-1.2.3-1.2.3-.2,0-.3,0-.5,0s-.2-.2-.3-.4v-.3c0,0-.9,1.1-.9,1.1l-1,.2,2.1-2.7-2.5.5ZM270.7,308.3v-.5c0,0,3.1-.5,3.1-.5v.5c0,0-3.1.5-3.1.5Z"/>
    <path class="cls-24" d="M274.7,307.1l.8-.2.4,2.1c0,.3.2.6.3.8l.8-.5v.4c0,0-1.4.9-1.4.9-.2-.3-.4-.8-.5-1.5l-.4-2.1ZM278.5,309.5l-.3-1.6c0-.4-.3-.8-.5-1.2l.9-.2c.3.4.4.8.5,1.2l.3,1.6-.8.2Z"/>
    <path class="cls-24" d="M280.9,309.6c0,0-.1,0-.2,0,0,0,0,0-.1-.2,0,0,0,0,0-.1,0,0,0,0,0-.1l1.1-1.7-1.1.2-1.2.2v-.4c0,0,.4-.1.4-.1l.8-1.2-1.2.2v-.4c0,0,2.5-.5,2.5-.5l-1.1,1.6,1.2-.2,1.2-.2h.2s0,.3,0,.3h-.6c0,.1-1,1.6-1,1.6,0,0,0,0,0,0,0,0,0,0,0,0,0,0,0,0,0,0,0,0,0,0,0,0l1.1-.2v.4c0,0-2.4.5-2.4.5ZM282.2,306.1l-.2-.5h.4c0,0,.2.4.2.4h-.4ZM282.7,306l-.2-.5h.4c0,0,.2.4.2.4h-.4Z"/>
    <path class="cls-24" d="M283.9,306.7v-.4c0,0,3-.6,3-.6.2,0,.5,0,.7.1s.3.3.4.6l.2.8c0,.2,0,.5-.1.7-.1.2-.3.3-.6.4l-2.6.5v-.4c0,0,2.1-.4,2.1-.4.1,0,.2,0,.3-.2,0-.1,0-.2,0-.3l-.2-1c0-.1,0-.2-.2-.3-.1,0-.2,0-.3,0l-2.7.6ZM284.2,305.5v-.4c0,0,3.1-.4,3.1-.4v.4c0,0-3.1.4-3.1.4Z"/>
  </g>
  <g class="cls-20">
    <path class="cls-24" d="M136.8,119.5l-2.2-.8,4.7-13.6-2.8-1,1.7-4.8,2.8,1,1.6-4.6,2.2.8-1.6,4.6,13.5,4.7c.7.2,1.2.7,1.5,1.3.3.7.4,1.3.1,2l-3.5,10.2-2.2-.8,2.3-6.6c.1-.3.1-.7,0-1-.2-.3-.4-.5-.8-.7l-1.7-.6-2.7,7.9c-.2.7-.7,1.2-1.3,1.5-.7.3-1.3.4-2,.1l-2.8-1c-.7-.2-1.2-.7-1.5-1.3-.3-.7-.4-1.3-.1-2l2.7-7.9-3-1-4.7,13.6ZM147.9,108.1c-.3-.1-.7-.1-1,0-.3.2-.5.4-.7.8l-1.1,3.1c-.1.3-.1.7,0,1,.2.3.4.5.8.7l.9.3c.3.1.7.1,1,0,.3-.2.5-.4.7-.8l1.1-3.1c.1-.3.1-.7,0-1-.2-.3-.4-.5-.8-.7l-.9-.3Z"/>
    <path class="cls-24" d="M140.7,92.2l1.9-5.4,15.1,5.2c.5.2,1,.2,1.5,0,.5-.1.9-.4,1.3-.8.4-.4.6-.8.6-1.4l2.3-15.6,3.1,1.1-2.4,16.6c-.2,1.3-.7,2.5-1.6,3.4-.9,1-2,1.7-3.3,2-1.3.3-2.6.3-3.8-.1l-14.7-5.1Z"/>
  </g>
  <g class="cls-20">
    <path class="cls-24" d="M128.4,126.3l.4-1.8,3.5.7,1.2-2,3.9.8-1.2,2,1.6.3-.4,1.8-2.2-.4-4.5,7.7-3.9-.8,4.5-7.7-2.9-.6ZM133.3,140.9c-.6-.1-1-.4-1.3-.9-.3-.5-.4-1-.3-1.6l.5-2.4c.1-.6.4-1,.9-1.3.5-.3,1-.4,1.6-.3l6,1.2,1.1-5.4,3.9.8-1.1,5.4,1.2.2-.4,1.8-1.2-.2-.5,2.7c-.1.6-.4,1-.9,1.3-.5.3-1,.4-1.6.3l-7.9-1.6ZM140.3,137.4l-3.1-.6c-.3,0-.5,0-.8.1-.2.2-.4.4-.4.7l-.2.9c0,.3,0,.5.1.8s.4.4.7.4l2.1.4c.3,0,.5,0,.8-.2.2-.2.4-.4.4-.7l.4-1.9ZM138.3,127.2l.4-1.8,8.6,3.3-.4,1.8-8.6-3.3Z"/>
    <path class="cls-24" d="M146.6,143.6l6.3-16.5,3.9.8-2.8,7.4,4.3.9c.6.1,1,.4,1.3.9.3.5.4,1,.3,1.6l-.9,4.6c0,.3,0,.5.1.8.2.2.4.4.7.4l1,.2c.3,0,.5,0,.8-.2.2-.2.4-.4.4-.7l1.3-6.6,3.9.8-1.5,7.4c-.1.6-.4,1-.9,1.3-.5.3-1,.4-1.6.3l-6.7-1.3c-.6-.1-1-.4-1.3-.9-.3-.5-.4-1-.3-1.6l.9-4.6c0-.3,0-.5-.2-.8-.2-.2-.4-.4-.7-.4l-1.7-.3-2.8,7.4-3.9-.8Z"/>
    <path class="cls-24" d="M170.2,133.3l.4-1.8,18.7,3.7-9.5,6.7c-.2.2-.4.4-.4.6,0,.2,0,.5,0,.7l2.7,7.4-4.5-.9-2.4-6.5c-.2-.5-.2-1,0-1.5s.5-.9.9-1.3l6.7-4.6-12.5-2.5ZM183,142.3v-2.5c0,0,2.1.4,2.1.4v2.5c0,0-2.1-.4-2.1-.4ZM185.4,142.8v-2.5c0,0,2.1.4,2.1.4v2.5c0,0-2.1-.4-2.1-.4Z"/>
    <path class="cls-24" d="M190.7,138.9l.4-1.8,4.9,1,1.1-2.2,3.9.8-1.1,2.2,7,1.4-.4,1.8-7.5-1.5-1.1,2.3,8.1,1.6-.4,1.8-8.6-1.7-2.3,4.7c-.2.3-.2.7-.2,1,0,.3.2.6.4.9.2.3.5.4.9.5l6.3,1.3c.3,0,.5,0,.8-.2.2-.2.4-.4.4-.7l.8-3.9,3.9.8-.9,4.6c-.1.6-.4,1-.9,1.3-.5.3-1,.4-1.6.3l-11.5-2.3c-.7-.1-1.3-.5-1.7-1-.5-.5-.8-1.1-.9-1.8-.1-.7,0-1.3.3-2l2.2-4.4-3.3-.7.4-1.8,3.8.8,1.1-2.3-4.4-.9Z"/>
    <path class="cls-24" d="M124,165l1.4-11.3-2.4-.3.4-1.8,2.3.3.5-4.2,3.9.8-.5,4,3.1.4,1.1-3.7,3.9.8-1,3.4,3,.4c.5,0,.9.2,1.2.5.4.3.6.7.8,1.1.2.4.2.9.1,1.3l-.7,3.6c-.2.8-.6,1.5-1.3,2-.7.5-1.5.6-2.3.5l-4.3-.9.4-1.8,2,.4c.4,0,.8,0,1.2-.2.4-.2.6-.6.7-1l.5-2.6c0-.2,0-.5,0-.7,0-.2-.2-.4-.4-.5-.2-.1-.4-.2-.6-.3l-7.3-1-1.4,11.5-3.9-.8Z"/>
    <path class="cls-24" d="M147.2,153.8l.4-1.8,13,2.6-10,5.9,8.5,1.7c.8.2,1.5.6,2,1.3.5.7.6,1.5.5,2.3l-.7,3.3c-.2.8-.6,1.5-1.3,2-.7.5-1.5.6-2.3.5l-11-2.2c-.6-.1-1-.4-1.3-.9-.3-.5-.4-1-.3-1.5l.3-1.5c.1-.6.4-1,.9-1.3.5-.3,1-.4,1.6-.3l5.4,1.1c.6.1,1,.4,1.3.9.3.5.4,1,.3,1.6l-.3,1.7,1.2.2c.4,0,.8,0,1.2-.2.4-.2.6-.6.7-1l.6-2.8c0-.4,0-.8-.2-1.2s-.6-.6-1-.7l-13.3-2.7,10-5.9-5.8-1.2ZM151,168.6l.2-.9c0-.3,0-.5-.1-.8-.2-.2-.4-.4-.7-.4l-1.5-.3c-.3,0-.5,0-.8.1-.2.2-.4.4-.4.7,0,.3,0,.5.1.7.1.2.3.4.6.4l2.6.5Z"/>
  </g>
  <g class="cls-20">
    <path class="cls-24" d="M136.7,188.2l.4-1.8h.8c.4.2.8.2,1.2,0,.4-.2.6-.6.7-1l.7-3.3c0-.4,0-.8-.2-1.2-.2-.4-.6-.6-1-.7l-3.3-.7-1.6,8.1-6.9-1.4c-.8-.2-1.5-.6-2-1.3-.5-.7-.6-1.5-.5-2.3l.8-3.8c.2-.8.6-1.5,1.3-2,.7-.5,1.5-.6,2.3-.5l3,.6.8-3.8-5.5-1.1.4-1.8,5.5,1.1.3-1.5,3.9.8-.3,1.5,3.6.7-.4,1.8-3.6-.7-.8,3.8,5.7,1.1c.8.2,1.5.6,2,1.3.5.7.6,1.5.5,2.3l-.8,3.8c-.2.8-.6,1.5-1.3,2-.7.5-1.5.6-2.3.5l-3.1-.6ZM130.6,185.1l1.3-6.3h-.6c-.4-.2-.8-.1-1.2.1-.4.2-.6.6-.7,1l-.7,3.3c0,.4,0,.8.2,1.2.2.4.6.6,1,.7h.6ZM143,176.7l-.9-4.5,2.3.5.9,4.5-2.3-.5Z"/>
    <path class="cls-24" d="M145,189.8l6.3-16.5,3.9.8-2.8,7.4,4.3.9c.6.1,1,.4,1.3.9.3.5.4,1,.3,1.5l-.9,4.6c0,.3,0,.5.1.8.2.2.4.4.7.4l1,.2c.3,0,.5,0,.8-.2.2-.2.4-.4.4-.7l1.3-6.6,3.9.8-1.5,7.4c-.1.6-.4,1-.9,1.3-.5.3-1,.4-1.5.3l-6.7-1.3c-.6-.1-1-.4-1.3-.9-.3-.5-.4-1-.3-1.5l.9-4.6c0-.3,0-.5-.1-.8-.2-.2-.4-.4-.7-.4l-1.7-.3-2.8,7.4-3.9-.8Z"/>
    <path class="cls-24" d="M168.2,182l.4-1.8,3.3.7,1.2-3.2,3.9.8-1.2,3.2,3.7.7c.8.2,1.5.6,2,1.3.5.7.6,1.5.5,2.3l-1.5,7.6c-.2.8-.6,1.5-1.3,2-.7.5-1.5.6-2.3.5l-3.9-.8.4-1.8,1.5.3c.4,0,.8,0,1.2-.2.4-.2.6-.6.7-1l1.4-7.1c0-.4,0-.8-.2-1.2-.2-.4-.6-.6-1-.7l-1.6-.3-4.4,11.5-3.9-.8,4.4-11.5-3-.6ZM184,190.7l-1.5-8,1.8.4,1.5,8-1.8-.4ZM182.7,182.2v-2.5c0,0,2.1.4,2.1.4v2.5c0,0-2.1-.4-2.1-.4ZM185.1,182.7v-2.5c0,0,2.1.4,2.1.4v2.5c0,0-2.1-.4-2.1-.4Z"/>
    <path class="cls-24" d="M201.2,183.3l5.2,1-12.9,6.3,11.8,11.2-5.2-1-11.8-11.2,12.9-6.3Z"/>
  </g>
  <g class="cls-20">
    <path class="cls-24" d="M176.9,170.9l-11.1-9.6,1.2-1.6,11.1,9.6-1.2,1.6ZM179.3,166.4l-10-8.8,1.2-1.6,10,8.8-1.2,1.6ZM182.5,162.6l-10.5-9.2,1.2-1.6,10.5,9.2-1.2,1.6Z"/>
    <path class="cls-24" d="M183.8,164.2l.8-1.1.8.6,1.5-2,3.3,2.4-1.5,2,4.4,3.2,3.3,2.4-3.9,4.1-3.3-2.4,3-3-4.3-3.2-4.7,6.5,7.7,5.6-.8,1.1-7.7-5.6-3.3-2.4.8-1.1,4.7-6.5-.8-.6Z"/>
    <path class="cls-24" d="M198.3,171.8l.8-1.1,8,5.8,3.8,2.8-8.3,2.6h0s.4,8.2.4,8.2l-2.3-1.6-.3-5.9-5.4,1.7-3.8-2.8,14.2-4.4-7.2-5.2Z"/>
  </g>
  <g class="cls-20">
    <path class="cls-24" d="M340.7,263c-.4,0-.7-.2-1-.5-.2-.3-.4-.7-.3-1.1,0-.2,0-.5.2-.7.1-.2.3-.4.4-.6l8.8-7.3-6-.6-6.7-.7.2-2.2,2.8.3,7.8-4.7-7-.7.2-2.2,9.8,1.1,6.7.7-10.9,6.6,5.2.6,6.7.7h1.2c0,.1-.2,2.3-.2,2.3l-3.3-.4-7.7,6.4c-.1.1-.2.3-.3.4,0,.2,0,.4,0,.5,0,.2.2.3.3.4.1.1.3.2.5.2l6.5.7-.2,2.2-13.9-1.5Z"/>
    <path class="cls-24" d="M362.5,244.5l5.3.6-1.6,14.9c0,.5,0,1,.3,1.4.2.4.6.8,1,1,.4.2.9.3,1.4.3l14.7-1.2-.3,3.1-15.6,1.3c-1.2,0-2.4-.2-3.5-.7s-1.9-1.5-2.5-2.6c-.6-1.1-.8-2.3-.7-3.5l1.6-14.5Z"/>
    <path class="cls-24" d="M387.2,252l.2-2.2,4.2.5,1.2-2.6,4.7.5-1.2,2.6,1.9.2-.2,2.2-2.6-.3-4.5,9.7-4.7-.5,4.5-9.7-3.5-.4ZM394.6,268.8c-.7,0-1.2-.4-1.7-.9-.4-.5-.6-1.1-.5-1.8l.3-3c0-.7.4-1.2.9-1.7.5-.4,1.1-.6,1.8-.5l7.3.8.7-6.5,4.7.5-.7,6.5,1.5.2-.2,2.2-1.5-.2-.3,3.2c0,.7-.4,1.2-.9,1.7-.5.4-1.1.6-1.8.5l-9.5-1ZM402.5,263.9l-3.8-.4c-.3,0-.6,0-.9.3-.3.2-.4.5-.5.8v1.1c-.2.3,0,.6.1.9.2.3.5.4.8.5l2.6.3c.3,0,.6,0,.9-.3.3-.2.4-.5.5-.8l.2-2.3ZM399.1,252l.2-2.2,10.6,3-.2,2.2-10.6-3Z"/>
  </g>
  <g class="cls-20">
    <path class="cls-24" d="M323.5,284.6c-.4,0-.7-.2-1-.5-.2-.3-.4-.7-.3-1.1,0-.2,0-.5.2-.7.1-.2.3-.4.4-.6l8.8-7.3-6-.6-6.7-.7.2-2.2,2.8.3,7.8-4.7-7-.7.2-2.2,9.8,1.1,6.7.7-10.9,6.6,5.2.6,6.7.7h1.2c0,.1-.2,2.3-.2,2.3l-3.3-.4-7.7,6.4c-.1.1-.2.3-.3.4,0,.2,0,.4,0,.5,0,.2.2.3.3.4.1.1.3.2.5.2l6.5.7-.2,2.2-13.9-1.5Z"/>
    <path class="cls-24" d="M345.3,266.1l5.3.6-1.6,14.9c0,.5,0,1,.3,1.4.2.4.6.8,1,1,.4.2.9.3,1.4.3l14.7-1.2-.3,3.1-15.6,1.3c-1.2,0-2.4-.2-3.5-.7s-1.9-1.5-2.5-2.6c-.6-1.1-.8-2.3-.7-3.5l1.6-14.5Z"/>
    <path class="cls-24" d="M370,273.6l.2-2.2,4.2.5,1.2-2.6,4.7.5-1.2,2.6,1.9.2-.2,2.2-2.6-.3-4.5,9.7-4.7-.5,4.5-9.7-3.5-.4ZM377.4,290.4c-.7,0-1.2-.4-1.7-.9-.4-.5-.6-1.1-.5-1.8l.3-3c0-.7.4-1.2.9-1.7.5-.4,1.1-.6,1.8-.5l7.3.8.7-6.5,4.7.5-.7,6.5,1.5.2-.2,2.2-1.5-.2-.3,3.2c0,.7-.4,1.2-.9,1.7-.5.4-1.1.6-1.8.5l-9.5-1ZM385.3,285.5l-3.8-.4c-.3,0-.6,0-.9.3-.3.2-.4.5-.5.8v1.1c-.2.3,0,.6.1.9.2.3.5.4.8.5l2.6.3c.3,0,.6,0,.9-.3.3-.2.4-.5.5-.8l.2-2.3ZM381.9,273.6l.2-2.2,10.6,3-.2,2.2-10.6-3Z"/>
  </g>
  <g class="cls-20">
    <path class="cls-24" d="M285.4,304.5c-.4,0-.7-.2-1-.5-.2-.3-.4-.7-.3-1.1,0-.2,0-.5.2-.7.1-.2.3-.4.4-.6l8.8-7.3-6-.6-6.7-.7.2-2.2,2.8.3,7.8-4.7-7-.7.2-2.2,9.8,1.1,6.7.7-10.9,6.6,5.2.6,6.7.7h1.2c0,.1-.2,2.3-.2,2.3l-3.3-.4-7.7,6.4c-.1.1-.2.3-.3.4s0,.4,0,.5c0,.2.2.3.3.4.1.1.3.2.5.2l6.5.7-.2,2.2-13.9-1.5Z"/>
    <path class="cls-24" d="M307.1,285.9l5.3.6-1.6,14.9c0,.5,0,1,.3,1.4.2.4.6.8,1,1,.4.2.9.3,1.4.3l14.7-1.2-.3,3.1-15.6,1.3c-1.2,0-2.4-.2-3.5-.8-1.1-.6-1.9-1.5-2.5-2.6-.6-1.1-.8-2.3-.7-3.5l1.6-14.5Z"/>
    <path class="cls-24" d="M331.8,293.5l.2-2.2,4.2.5,1.2-2.6,4.7.5-1.2,2.6,1.9.2-.2,2.2-2.6-.3-4.5,9.7-4.7-.5,4.5-9.7-3.5-.4ZM339.3,310.3c-.7,0-1.2-.4-1.7-.9-.4-.5-.6-1.1-.5-1.8l.3-3c0-.7.4-1.2.9-1.7.5-.4,1.1-.6,1.8-.5l7.3.8.7-6.5,4.7.5-.7,6.5,1.5.2-.2,2.2-1.5-.2-.3,3.2c0,.7-.4,1.2-.9,1.7-.5.4-1.1.6-1.8.5l-9.5-1ZM347.2,305.4l-3.8-.4c-.3,0-.6,0-.9.3-.3.2-.4.5-.5.8v1.1c-.2.3,0,.6.1.9.2.3.5.4.8.5l2.6.3c.3,0,.6,0,.9-.3.3-.2.4-.5.5-.8l.2-2.3ZM343.8,293.4l.2-2.2,10.6,3-.2,2.2-10.6-3Z"/>
  </g>
  <g class="cls-20">
    <path class="cls-24" d="M312.7,275.5l-1.4-1.4c.4-.4.7-.8.6-1.1s-.1-.5-.3-.7l-3.6-3.5c-.2-.2-.5-.3-.8-.3-.3,0-.6.1-.8.3l-.5.5,4,4.1c.6.7,1,1.4,1,2.3s-.3,1.7-1,2.3l-6.1,6.2c-.4.4-.9.7-1.6.7-.6,0-1.1-.2-1.6-.6l-4.7-4.5c-.4-.4-.7-.9-.7-1.6,0-.6.2-1.2.6-1.6l2-2-2.9-2.9-3.5,3.6-1.4-1.4,3.5-3.6-1.2-1.2,3-3.1,1.2,1.2,7.5-7.7,1.4,1.4-7.5,7.7,2.9,2.9.6-.6-1-1,3-3.1,1,1,2.7-2.8c.4-.4.9-.7,1.6-.7.6,0,1.1.2,1.6.6l4.7,4.5c.4.4.7.9.7,1.6,0,.6-.2,1.1-.6,1.6l-2.5,2.6ZM299.4,276.2c-.2.2-.2.3-.2.6,0,.2,0,.4.2.6l3.9,3.8c.2.2.4.2.6.2.2,0,.4,0,.6-.2l-5.1-4.9ZM307.5,278c.1-.1.2-.3.2-.4,0-.2,0-.3-.2-.4l-4.5-4.6-.6.6,5.1,4.9Z"/>
    <path class="cls-24" d="M327.6,260.1l-1.4-1.4.8-.8c.3-.3.5-.7.5-1.2,0-.4-.1-.8-.4-1.1l-7.8-7.6c-.3-.3-.7-.4-1.1-.4-.4,0-.8.2-1.1.5l-1.4,1.5,8.9,9.9c.5.6.7,1.3.7,2.1,0,.8-.4,1.4-.9,2l-3.6,3.7c-.6.7-1.4,1-2.3,1-.9,0-1.7-.3-2.3-.9l-8.2-8c-.6-.6-1-1.4-1-2.3s.3-1.7,1-2.4l10.6-10.9c.4-.4.8-.6,1.4-.6s1,.2,1.4.5l9.2,8.9c.6.6,1,1.4,1,2.3,0,.9-.3,1.7-1,2.4l-2.6,2.7ZM312.6,252.7l-1.6,1.6c-.3.3-.5.7-.5,1.2,0,.4.1.8.4,1.1l7.9,7.6c.3.3.7.4,1.1.4.4,0,.8-.2,1.1-.5.3-.3.4-.6.5-1,0-.4,0-.7-.3-1l-8.6-9.5Z"/>
  </g>
  <g class="cls-20">
    <path class="cls-24" d="M134.6,205.3l2.2-.7,1.8,5.7c.3.9.6,1.6.9,2.1l2-1.5.4,1.1-3.7,2.9c-.7-.8-1.3-2.1-1.9-3.8l-1.8-5.7ZM145.6,210.7l-1.4-4.2c-.4-1.1-1-2.1-1.9-3l2.3-.7c.8.9,1.4,2,1.8,3l1.4,4.2-2.2.7Z"/>
    <path class="cls-24" d="M150.7,210.8c-.3.1-.6,0-.9,0-.3-.2-.5-.4-.6-.7l-.5-1.4c-.1-.3,0-.6,0-.9.2-.3.4-.5.7-.6l3.8-1.2-.5-1.7-5,1.6-.3-1,5-1.6-.4-1.2-5,1.6-.3-1,5-1.6-.4-1.1,2.2-.7.4,1.1,3.4-1.1.3,1-3.4,1.1.4,1.2,3.4-1.1.3,1-3.4,1.1.5,1.7,3.4-1.1.3,1-3.4,1.1.5,1.5c.1.3,0,.6,0,.9-.2.3-.4.5-.7.6l-4.9,1.6ZM153.6,206.8l-2.2.7c-.2,0-.3.2-.4.3,0,.1,0,.3,0,.5l.2.5c0,.2.2.3.3.4.1,0,.3,0,.5,0l1.6-.5c.2,0,.3-.2.4-.3,0-.1,0-.3,0-.5l-.4-1.1Z"/>
    <path class="cls-24" d="M159.3,201.2l-.3-1,1.2-.5-.8-2.5,2.2-.7.7,2.3,3.8-1.5-.7-2,2.2-.7.6,1.9,1.1-.4.3,1-1.1.4,1.4,4.2-2.2.7-1.3-4-3.8,1.5,1.5,4.5c0,.2.2.4.5.5s.5.1.7,0l5.4-1.7.3,1-6.7,2.2c-.5.2-.9.1-1.4-.1-.4-.2-.8-.6-.9-1.1l-1.5-4.5-1.2.5Z"/>
  </g>
  <g class="cls-20">
    <path class="cls-24" d="M157.5,228.5l-.7-1,.4-.3c.2-.2.4-.4.4-.6,0-.3,0-.5-.1-.8l-1.2-1.8c-.2-.2-.4-.4-.6-.4-.3,0-.5,0-.8.1l-1.9,1.2,3,4.5-3.8,2.5c-.5.3-1,.4-1.5.3-.6-.1-1-.4-1.3-.9l-1.4-2.1c-.3-.5-.4-1-.3-1.5.1-.6.4-1,.9-1.3l1.7-1.1-1.4-2.1-3.1,2-.7-1,3.1-2-.6-.9,2.2-1.4.6.9,2-1.3.7,1-2,1.3,1.4,2.1,3.2-2.1c.5-.3,1-.4,1.5-.3.6.1,1,.4,1.3.9l1.4,2.1c.3.5.4,1,.3,1.5-.1.6-.4,1-.9,1.3l-1.8,1.1ZM153.2,229.9l-2.3-3.5-.3.2c-.2.2-.4.4-.4.6,0,.3,0,.5.1.8l1.2,1.8c.2.2.4.4.6.4.3,0,.5,0,.8-.1l.3-.2ZM155.1,220.3l-2.5-1.7,1.3-.8,2.5,1.7-1.3.8Z"/>
    <path class="cls-24" d="M169.1,220.9l-.7-1,.4-.3c.2-.2.4-.4.4-.6,0-.3,0-.5-.1-.8l-1.2-1.8c-.2-.2-.4-.4-.6-.4-.3,0-.5,0-.8.1l-1.9,1.2,3,4.5-3.8,2.5c-.5.3-1,.4-1.5.3-.6-.1-1-.4-1.3-.9l-1.4-2.1c-.3-.5-.4-1-.3-1.5.1-.6.4-1,.9-1.3l1.7-1.1-1.4-2.1-3.1,2-.7-1,3.1-2-.6-.9,2.2-1.4.6.9,2-1.3.7,1-2,1.3,1.4,2.1,3.2-2.1c.5-.3,1-.4,1.5-.3.6.1,1,.4,1.3.9l1.4,2.1c.3.5.4,1,.3,1.5-.1.6-.4,1-.9,1.3l-1.7,1.1ZM164.8,222.3l-2.3-3.5-.3.2c-.2.2-.4.4-.4.6,0,.3,0,.5.1.8l1.2,1.8c.2.2.4.4.6.4.3,0,.5,0,.8-.1l.3-.2ZM166.7,212.6l-2.5-1.7,1.3-.8,2.5,1.7-1.3.8Z"/>
    <path class="cls-24" d="M168.7,210.2l-.7-1,4.4-2.9-1.2-.5,2.5-1.7,1.2.5,3.5-2.3.7,1-2.9,1.9,4.4,1.9-6.7,4.4c-.2.2-.4.4-.4.6,0,.3,0,.5.1.8l1,1.6c.2.2.4.4.6.4.3,0,.5,0,.8-.1l6.7-4.4.7,1-8,5.3c-.5.3-1,.4-1.5.3-.6-.1-1-.4-1.3-.9l-1.2-1.9c-.3-.5-.4-1-.3-1.5.1-.6.4-1,.9-1.3l4.8-3.2-3.1-1.4-5,3.3Z"/>
    <path class="cls-24" d="M181,203.6l-.7-1,1.9-1.2-.9-2.1,2.2-1.4.9,2.1,2.5-1.6c.5-.3,1-.4,1.5-.3.6.1,1,.4,1.3.9l2.8,4.3c.3.5.4,1,.3,1.5-.1.6-.4,1-.9,1.3l-2.6,1.7-.7-1,1.2-.8c.2-.2.4-.4.4-.6,0-.3,0-.5-.1-.8l-2.6-4c-.2-.2-.4-.4-.6-.4-.3,0-.5,0-.8.1l-1.3.9,3.2,7.4-2.2,1.4-3.2-7.4-1.7,1.1ZM191.3,198.7l-4.4-3,1-.7,4.4,3-1,.7Z"/>
    <path class="cls-24" d="M154.6,239.4l-.7-1,4.3-2.8-1.1-.6,2.5-1.7,1.1.6,3.6-2.4.7,1-3,2,1.2.6,2.5-1.6.7,1-1.9,1.2,2.4,1.2-2.5,1.7-4.1,2.7c-.2.2-.4.4-.4.6,0,.3,0,.5.1.8l.7,1c.2.2.4.4.6.4.3,0,.5,0,.8-.1l6.7-4.4.7,1-8,5.3c-.5.3-1,.4-1.5.3-.6-.1-1-.4-1.3-.9l-.9-1.3c-.3-.5-.4-1-.3-1.5.1-.6.4-1,.9-1.3l4.9-3.2-1.2-.6-6,3.9-.7-1,5.5-3.6-1.2-.6-4.9,3.2Z"/>
    <path class="cls-24" d="M171.2,239.4l-4.7-10.6,2.2-1.4,2.1,4.7,2.4-1.6c.3-.2.7-.3,1-.2.4,0,.7.3.9.6l1.7,2.6c.1.2.2.3.4.3.2,0,.4,0,.5,0l.5-.4c.2-.1.3-.2.3-.4,0-.2,0-.4,0-.5l-2.4-3.7,2.2-1.4,2.7,4.1c.2.3.3.7.2,1,0,.4-.3.7-.6.9l-3.8,2.5c-.3.2-.7.3-1,.2-.4,0-.7-.3-.9-.6l-1.7-2.6c-.1-.2-.2-.3-.4-.3-.2,0-.4,0-.5,0l-.9.6,2.1,4.7-2.2,1.4Z"/>
    <path class="cls-24" d="M181.2,219.2l2.2-1.4,1.2,1.8,3.6-2.4.7,1-3.6,2.4,2.4,3.7,4.2-1.4.7,1-4.2,1.4.6.9c.2.3.3.7.2,1,0,.4-.3.7-.6.9l-4.2,2.8c-.4.3-.8.3-1.3.2-.5-.1-.9-.4-1.1-.8l-1-1.6c-.2-.3-.3-.6-.3-.9,0-.3.1-.6.3-.9.2-.3.5-.5.8-.6l3.4-1.2-3.9-5.9ZM186.2,228.1c.2-.1.3-.2.3-.4s0-.4,0-.5l-.7-1.1-2,.7c-.1,0-.3.1-.3.2s-.1.2-.1.4c0,.1,0,.3.1.4l.5.8c.1.2.3.3.6.4.2,0,.5,0,.7-.1l1.1-.8Z"/>
    <path class="cls-24" d="M190.4,214.7l-.7-1,8.7-4.6.7,1-8.7,4.6ZM190.7,218.4l-.7-1,8.2-5.4c.6-.4,1.3-.5,2-.4.7.2,1.3.5,1.7,1.2l1.5,2.2c.4.6.5,1.3.4,2-.2.7-.5,1.3-1.2,1.7l-6.7,4.4-.7-1,5.7-3.7c.3-.2.5-.5.6-.9,0-.4,0-.7-.2-1l-1.6-2.5c-.2-.3-.5-.5-.9-.6-.4,0-.7,0-1,.2l-7.1,4.7Z"/>
  </g>
  <g class="cls-20">
    <path class="cls-24" d="M174.7,253.9l-3.6-5.5-3.1,2-.5-.8,3.1-2-1-1.5,2.4-1.6,1,1.5.5-.3.7.7-.6.4,3.6,5.5-2.4,1.6ZM171.4,255.5l-2.4-4.5,2.4-1.6,2.4,4.5-2.4,1.6ZM173.4,245.4c-.2-.3-.3-.7-.2-1.1,0-.4.3-.7.6-.9.3-.2.7-.3,1.1-.2.4,0,.7.3.9.6.2.3.3.7.2,1.1,0,.4-.3.7-.6.9-.3.2-.7.3-1.1.2-.4,0-.7-.3-.9-.6ZM174.1,245c.1.2.3.3.5.3.2,0,.4,0,.6-.1.2-.1.3-.3.3-.5,0-.2,0-.4-.1-.6-.1-.2-.3-.3-.5-.3-.2,0-.4,0-.6.1-.2.1-.3.3-.3.5,0,.2,0,.4.1.6ZM179.9,249.9l-2.4,1.6-3.1-4,2.4-1.6,3.1,4Z"/>
    <path class="cls-24" d="M178.9,246.2l-.5-.8,8.5-5.6.5.8-8.5,5.6Z"/>
    <path class="cls-24" d="M190.7,243.5l-5.1-7.8,2.4-1.6,2,3,6.5-3.5.5.8-6.5,3.5,2.6,4-2.4,1.6Z"/>
    <path class="cls-24" d="M196,230.9l-.5-.8,6.2-4,2.4-1.6,3.1,8.1-2.4,1.6-2.7-7.2-6,3.9Z"/>
    <path class="cls-24" d="M214.1,228.1l-3-4.6v6.6s-1.5,1-1.5,1v-6.8s-3,1.9-3,1.9l-.6-.8,4.4-2.9-.9-1.3,2.3-1.5.9,1.3,1.2-.8.6.8-1.2.8,3.1,4.8-2.3,1.5Z"/>
    <path class="cls-24" d="M217.5,222.2l-3.4-5.2,2.4-1.6,3.4,5.2-2.4,1.6ZM224.2,221.5l-4-8.6,2.4-1.6,4,8.6-2.4,1.6Z"/>
    <path class="cls-24" d="M233.5,215.4l-3.6-5.5.2,7.7-1.5,1-.2-7.7-3.3,2.2-.5-.8,4.8-3.2-1-1.5,2.4-1.6,1,1.5,1.3-.9.5.8-1.3.9,3.6,5.5-2.4,1.6Z"/>
    <path class="cls-24" d="M179.5,257.5l-.5-.8,4.7-3.1,2,3.5,1.9-1-1.7-2.9,1.8-1.2,1.9,3.1.5-.3.5.8-.6.3,1.8,3.1-1.8,1.2-1.9-3.3-1.9,1,1.4,2.4c.2.3.2.6.2,1,0,.3-.3.6-.6.8l-1.9,1.2c-.4.3-.8.3-1.3.2-.5,0-.8-.3-1.1-.7l-1-1.6c-.2-.3-.3-.6-.3-.9s0-.7.2-.9c.2-.3.4-.5.7-.7l1.2-.6-1.4-2.4-2.9,1.9ZM184.3,258.9h0c-.2.1-.3.2-.4.4,0,.1-.1.3-.1.5,0,.2,0,.3.1.5l1.1,1.7c0,0,.1.1.2.1,0,0,.2,0,.2,0,.1,0,.2-.2.3-.4,0-.2,0-.3,0-.5l-1.3-2.2Z"/>
    <path class="cls-24" d="M189,251.3l-.5-.8,6.5-4.2,2.1-1.4-1,6.3c0,.1,0,.3,0,.4,0,.1.1.2.3.2l3.8,1.8-2.1,1.4-3.3-1.5c-.3-.1-.5-.3-.6-.6-.1-.2-.2-.5-.1-.8l.7-4.4-5.6,3.7Z"/>
    <path class="cls-24" d="M204.5,250.7l-3.2-4.9v4.2c.1,0-.8-1.4-.8-1.4v-4c-.1,0-1.8,1.1-1.8,1.1l-.5-.8,1.8-1.2-.5-.8,1.8-1.2.7,1.1v-.3c.1,0,.1-.2.2-.2,0,0,.1-.1.2-.2l3-2c.3-.2.6-.3.9-.3.3,0,.6,0,.9.2.3.2.5.4.7.7l2.3,4h.4c0,0,.5.8.5.8h-.5c0,.3,0,.5,0,.7,0,.4-.3.7-.6.9l-1.2.8c-.4.3-.8.3-1.3.2-.5,0-.8-.3-1.1-.7h0c-.2-.4-.3-.7-.2-1s.2-.6.4-.9c.2-.2.5-.4.8-.4h.5c0,0-1.8-3.2-1.8-3.2,0-.1-.2-.3-.3-.3-.1,0-.3-.1-.5-.1-.2,0-.3,0-.5.1l-1.9,1.3c0,0-.1.1-.2.2,0,0,0,.1-.1.2v.3c0,0,3.7,5.8,3.7,5.8l-1.8,1.2ZM207.1,246.9c.1.2.3.3.5.3.2,0,.4,0,.6-.1.2-.1.3-.2.3-.4,0-.2,0-.4,0-.5v-.2c-.1,0-.9.1-.9.1-.1,0-.2,0-.3.2,0,0-.1.2-.1.3,0,.1,0,.2,0,.3Z"/>
  </g>
  <g class="cls-20">
    <path class="cls-24" d="M209.6,240.3l-.4-.7,5.1-3.3,1.9-1.3,1.7,8-1.9,1.3-1.5-7.2-4.8,3.1ZM218.2,242.1l-.6-1.2.8-.5.6,1.2-.8.5ZM219.1,241.5l-.6-1.2.8-.5.6,1.2-.8.5Z"/>
    <path class="cls-24" d="M217,234.5l1.9-1.3,3.4,5.1,4.6-3.9.7,1-6.4,5.5-.7-1-3.5-5.4Z"/>
    <path class="cls-24" d="M225.2,230.1l-.4-.7,2.5-1.6.4.7-2.5,1.6ZM229,235.8l-.5-.7,2.8-1.8-1.4-6.5,2.3-1.5,1.7,7.3-1.6,1.1-.6.4-2.6,1.7Z"/>
    <path class="cls-24" d="M235.6,228.9l-2.6-4.9,1.9-1.3.7,1.4,2.8-1.8,1.9-1.3.4.7,1.3,2.5h.2c0-.1.4.6.4.6l-.3.2.8,1.6-1.9,1.3-1-1.8-3,1.4.2.3-1.9,1.3ZM236.1,224.8l.9,1.8,3-1.4-1.1-2.2-2.8,1.8ZM237.7,222.6l-.6-1.2,1.1-.7.6,1.2-1.1.7ZM239.1,221.7l-.6-1.2,1.1-.7.6,1.2-1.1.7Z"/>
    <path class="cls-24" d="M242.7,222.7l-.4-.7,7-4.6.4.7-7,4.6Z"/>
    <path class="cls-24" d="M188.5,267.5l-.4-.7,5.1-3.3,1.9-1.3.8,4.4-1.7,1.1,1,3.6-1.9,1.3-1.3-4.6,1.8-1.2-.4-2.5-4.8,3.1Z"/>
    <path class="cls-24" d="M196.6,262.9l-.4-.6,5.1-3.3,1.9-1.3,2.5,6.7-1.9,1.3-2.2-5.9-4.9,3.2Z"/>
    <path class="cls-24" d="M206.2,260.5l-2.1-4.1,1.9-1.3.3.6,2.7-1.8,1.9-1.3,1.7,3.2h.2c0-.1.4.6.4.6h-.3c0,.1,1.3,2.4,1.3,2.4l-1.9,1.3-1.4-2.6-3,1.4.2.3-1.9,1.3ZM206.7,256.4l.9,1.8,3-1.4-1.2-2.2-2.8,1.8Z"/>
    <path class="cls-24" d="M213.7,255l-.4-.7,7-4.6.4.7-7,4.6Z"/>
    <path class="cls-24" d="M223.4,252.8l-.4-.7,2.5-1.7-3.1-4.7-2.4,1.6-.4-.7,2.4-1.6,1.9-1.3,2.4-1.6.4.7-2.4,1.6,3.1,4.7,2.5-1.7.4.7-2.5,1.7-1.9,1.3-2.5,1.7Z"/>
    <path class="cls-24" d="M227.8,242.5l-.4-.6,5.1-3.3,1.9-1.3,2.5,6.7-1.9,1.3-2.2-5.9-4.9,3.2Z"/>
    <path class="cls-24" d="M239,242.6l-.4-.6,2.3-1.5-2.6-4-2.2,1.4-.4-.6,2.2-1.5,1.8-1.2,2.2-1.5.4.6-2.2,1.4,2.6,4,2.3-1.5.4.6-2.4,1.6-1.8,1.2-2.4,1.6Z"/>
    <path class="cls-24" d="M245.1,235l-2.1-4.1,1.9-1.3.3.6,2.7-1.8,1.9-1.3,3.3,6.2-1.9,1.3-3-5.5-2.8,1.8,1.4,2.8-1.9,1.3Z"/>
    <path class="cls-24" d="M253.4,227.3l-1.1.7-1.9-2,1.1-.7,1.9,2ZM255.3,226.1l-1.1.7-1.9-2,1.1-.7,1.9,2ZM257.1,230.7l-2-7.8,2.3-1.5,2,7.8-2.3,1.5Z"/>
    <path class="cls-24" d="M198.5,274.3l-.4-.7,4.8-3.1,2.3-1.5-.3,5h0s4.5,1.4,4.5,1.4l-1.3.9-3.2-1.1-.2,3.3-2.3,1.5.5-8.5-4.3,2.8Z"/>
    <path class="cls-24" d="M208.4,272.4l-2.1-4.1,1.9-1.3.3.6,2.7-1.8,1.9-1.3,3.3,6.2-1.9,1.3-3-5.5-2.8,1.8,1.4,2.8-1.9,1.3Z"/>
    <path class="cls-24" d="M216,267l-.4-.7,7-4.6.4.7-7,4.6Z"/>
    <path class="cls-24" d="M225.6,264.7l-2.9-5.6,1.5-1,2.9,5.6-1.5,1ZM224.2,256.5l1.9-1.3,3.3,5,2-2,.7,1-3.7,3.7-.7-1-3.5-5.4Z"/>
    <path class="cls-24" d="M230.5,255.2l-.4-.7,1.2-.8-.5-1.5,1.9-1.3.5,1.5,1.9-1.3,1.9-1.3.4.7,2.9,4.4-1.9,1.3-2.9-4.4-2.1,1.4,1.9,5.1-1.9,1.3-1.9-5.1-1,.7Z"/>
    <path class="cls-24" d="M240.5,250l-1.1.7-1.8-1.9,1.1-.7,1.8,1.9ZM242.2,248.9l-1.1.7-1.8-1.9,1.1-.7,1.8,1.9ZM243.5,253l-1.7-7,2.2-1.4,1.7,7-2.2,1.4Z"/>
    <path class="cls-24" d="M245.3,243.7l-.4-.7,5.1-3.3,1.9-1.3,1.4,8.2-1.9,1.3-1.2-7.4-4.8,3.1ZM253.3,245c-.2-.3-.2-.6-.2-.9,0-.3.2-.6.5-.8.3-.2.6-.2.9-.2.3,0,.6.2.8.5.2.3.2.6.2.9,0,.3-.2.6-.5.8-.3.2-.6.2-.9.2-.3,0-.6-.2-.8-.5ZM253.8,244.7c0,.1.2.2.4.3.2,0,.3,0,.5,0,.1,0,.2-.2.3-.4s0-.3,0-.5c0-.1-.2-.2-.4-.3-.2,0-.3,0-.5,0-.1,0-.2.2-.3.4,0,.2,0,.3,0,.5Z"/>
  </g>
  <g class="cls-20">
    <path class="cls-24" d="M174.6,110.1l.5.2-.3.9.8.4-.3,1-.8-.4-.3,1c0,.2-.2.4-.4.5s-.4.1-.6,0l-2-.7c-.2,0-.4-.2-.5-.4-.1-.2-.1-.4,0-.6l.3-1,.5.2v.4c-.2.1-.2.2-.1.3,0,.1.1.2.2.2l1.9.6c.1,0,.2,0,.3,0,.1,0,.2-.1.2-.2v-.4c.1,0-2.8-1.6-2.8-1.6l.3-1,3,1.6.3-.8ZM171.8,114.1l2.2-.2-.2.5-2.2.2.2-.5ZM173.9,114.7h.7c0,.1-.2.6-.2.6h-.7c0-.1.2-.6.2-.6ZM174.1,114h.7c0,.1-.2.6-.2.6h-.7c0-.1.2-.6.2-.6Z"/>
    <path class="cls-24" d="M173.4,115.8l-1.2,3.8c0,.2-.2.4-.4.5s-.4.1-.6,0l-2.3-.7c-.2,0-.3-.2-.4-.4,0-.2-.1-.4,0-.6l1-3h.5c0,.1-.8,2.5-.8,2.5,0,0,0,.2,0,.3,0,0,.1.1.2.2l2.2.7c0,0,.2,0,.3,0,0,0,.1-.1.2-.2l1.1-3.3h.5Z"/>
    <path class="cls-24" d="M172.4,121.5l-.4,1.2-3.3-1.1c-.1,0-.2,0-.3,0-.1,0-.2,0-.3.2,0,0-.1.2-.1.3l-.4,3.3-.7-.2.4-3.6c0-.3.1-.5.3-.7.2-.2.4-.4.7-.4.3,0,.5,0,.8,0l3.2,1Z"/>
    <path class="cls-24" d="M168.1,126.2l.5.2-1.6,5-.5-.2,1.6-4.9Z"/>
    <path class="cls-24" d="M164.6,107.7l.5.2c0,.2,0,.3,0,.3,0,0,0,.1.1.1l1.2.4c0,0,.1,0,.2,0,0,0,.1,0,.1-.2v-.2c0,0-1.3-.5-1.3-.5-.2,0-.4-.2-.5-.4,0-.2-.1-.4,0-.6l.7-2.1c0-.1.1-.3.3-.3.1,0,.3,0,.4,0l1.6.5c.1,0,.3.1.3.3,0,.1,0,.3,0,.4l-.2.7,1,.3.4-1.2.5.2-.4,1.2h.4c0,.1-.3,1.2-.3,1.2h-.4c0-.1-.8,2.5-.8,2.5l-.5-.2.8-2.6-1-.3v.2c0,0,.3.1.3.1l-.3,1h-.3c0-.1-.3.8-.3.8,0,.1-.1.3-.3.3-.1,0-.3,0-.4,0l-1.6-.5c-.1,0-.3-.1-.3-.3,0-.1,0-.3,0-.4l.3-.9ZM165.5,106.6s0,0,0,.1c0,0,0,0,0,0l1.5.5v-.2c0,0-1.6-.6-1.6-.6ZM167.5,106.1c0,0,0-.1,0-.2,0,0,0,0-.1-.1l-1.3-.4c0,0-.1,0-.2,0,0,0,0,0-.1.1l1.7.6Z"/>
    <path class="cls-24" d="M163.1,112.3c.6,1,1.3,1.7,2.4,2l1.6.5-.3,1-2-.6c-1.1-.6-1.7-1.2-2-1.8l.4-1.2ZM168.2,111.3l-.3,1-1.6-.5h-.5c0-.1,0,.6,0,.6l-.5-.2v-1.3c0,0,0-.2,0-.3,0,0,.1-.1.2-.2,0,0,.2,0,.3,0h.3c0,0,.5.2.5.2l1.6.5Z"/>
    <path class="cls-24" d="M165.3,116.2l.5.2-.3.9.8.4-.3,1-.8-.4-.3,1c0,.2-.2.4-.4.5-.2.1-.4.1-.6,0l-2-.7c-.2,0-.4-.2-.5-.4-.1-.2-.1-.4,0-.6l.3-1,.5.2v.4c-.2.1-.2.2-.1.3,0,.1.1.2.2.2l1.9.6c.1,0,.2,0,.3,0,.1,0,.2-.1.2-.2v-.4c.1,0-2.8-1.6-2.8-1.6l.3-1,3,1.6.3-.8ZM162.5,120.2l2.2-.2-.2.5-2.2.2.2-.5ZM164.6,120.8h.7c0,.1-.2.6-.2.6h-.7c0-.1.2-.6.2-.6ZM164.8,120.1h.7c0,.1-.2.6-.2.6h-.7c0-.1.2-.6.2-.6Z"/>
    <path class="cls-24" d="M160,121.8c0-.3.3-.5.6-.7.3-.1.6-.2.9,0l.6.2c.2,0,.3.2.4.3.1.2.2.3.1.5v1c0,0,2.1-.5,2.1-.5l-.4,1.2-1.8.4-.2,2.6-.6-.2.2-3.9c0,0,0-.2,0-.3,0,0-.1-.1-.2-.2l-.7-.2c-.1,0-.3,0-.4,0s-.2.2-.3.3l-1.1,3.4-.5-.2,1.3-3.9Z"/>
    <path class="cls-24" d="M161.3,127.1l.5.2-1.3,3.9c0,.3-.3.5-.6.7-.3.1-.6.2-.9,0l-1.1-.3c-.3,0-.5-.3-.7-.6-.1-.3-.2-.6,0-.9l1-3.2.5.2-.9,2.7c0,.1,0,.3,0,.4s.2.2.3.3l1.2.4c.1,0,.3,0,.4,0,.1,0,.2-.2.3-.3l1.1-3.4ZM162.4,128.2l.5.2-1.6,3.8-.5-.2,1.6-3.8Z"/>
  </g>
  <g id="_レイヤー_2-2" data-name=" レイヤー 2">
    <rect class="cls-25" x="857.9" y="-69.5" width="494.8" height="608.8"/>
    <rect class="cls-25" x="857.9" y="-69.5" width="494.8" height="608.8"/>
    <rect class="cls-25" x="857.9" y="-69.5" width="494.8" height="608.8"/>
    <path class="cls-24" d="M1085,124.4v-.3h.2c0-.2.2-.2.3-.2l6.3,3.7h0l-1.2-7.2s0-.2.1-.2h.2c.1-.2.2-.2.3-.1l6.7,6.8c.1.1.1.3,0,.4l-1.1.7h-.3l-3.7-3.9h0l1.1,5.9s0,.2-.1.3h-.2c-.1.2-.2.2-.3.1l-5.2-3.1h0l2.4,4.8v.3l-1,.7c-.1.1-.3,0-.4-.1l-4-8.7h-.1Z"/>
    <path class="cls-24" d="M1096.4,122.4c-.1-.1-.1-.3,0-.4l1.1-.5h.3l2.6,2.3h0v-3.5q0-.2.2-.3l1-.5c.2-.1.4,0,.4.2v10.2s0,.2-.1.2l-1.1.5c-.2,0-.4,0-.4-.2v-4.7l-4.1-3.4h.1Z"/>
    <path class="cls-24" d="M1105.7,113.7c0-.1,0-.3.2-.3h.3l7.1,4.6h0l-1.4-5.6c0-.1,0-.3.2-.3l1.2-.3c.1,0,.3,0,.3.2l2.2,9.2c0,.1,0,.3-.2.3h-.3l-7.2-4.8h0l1.4,5.9c0,.1,0,.3-.2.3l-1.2.3c-.1,0-.3,0-.3-.2l-2.2-9.2h0Z"/>
    <path class="cls-24" d="M1119.3,117.3h1c0-.7-.3-.9-.8-.9s-1.2.2-1.5.4c-.2,0-.3,0-.4-.2l-.2-.7c0-.2,0-.3.2-.4.1,0,1-.4,1.9-.5,1.7-.2,2.2.7,2.4,2.2l.3,3c0,.1-.1.3-.2.3h-.5c-.1,0-.2,0-.3-.1l-.2-.4c-.3.3-.8.8-1.6.9-1.1.1-2-.5-2.1-1.7-.1-1,.6-1.8,2-2M1119.6,119.7c.5,0,.8-.5.9-.6v-.8s-.5-.1-.9,0c-.5,0-.9.4-.8.9,0,.4.4.7.8.6"/>
    <path class="cls-24" d="M1123.6,115c0-.1.1-.3.3-.3h.5c.1,0,.2,0,.2.2l.2.5c.2-.3.9-.8,1.9-.8s1.4.3,1.8.9c.2-.2,1-.9,2-.8,1.8,0,2.4,1.4,2.4,2.8v2.7c0,.1-.1.3-.3.3h-1.1c-.1,0-.3-.2-.3-.3v-2.8c0-.7-.3-1.2-1-1.2s-1.2.6-1.2.6v3.4c0,.1-.2.3-.3.3h-1c-.1,0-.3-.1-.3-.3v-2.8c0-.7-.3-1.2-1-1.2s-1,.5-1.2.9v3.1c0,.1-.2.3-.3.3h-1.1c-.1,0-.3-.2-.3-.3v-5.1h0Z"/>
    <path class="cls-24" d="M1137.3,115.3c1.4.2,2.5,1.4,2.2,2.9v.4c0,.1-.2.2-.3.2l-3.5-.5c0,.6.4,1.3,1.2,1.4.4,0,.9,0,1.1-.2h.4l.5.7v.4c-.5.4-1.3.6-2.2.5-1.7-.2-2.7-1.7-2.5-3.3s1.6-2.8,3.2-2.5M1138,117.7c0-.5-.4-1-.9-1.1-.5,0-1.1.3-1.2.8l2.1.3h0Z"/>
    <path class="cls-24" d="M1144.3,117c0-.1.2-.2.3-.2l1.1.3c.1,0,.2.2.2.3l-1.2,4.9c0,.1-.2.2-.3.2l-1.1-.3c-.1,0-.2-.2-.2-.3l1.2-4.9h0ZM1145,113.9c.1-.5.6-.8,1.1-.7s.9.6.7,1.2-.6.8-1.2.7c-.5-.1-.8-.6-.7-1.2"/>
    <path class="cls-24" d="M1146.1,122.3l.6-.6c.1-.1.2-.1.3,0,0,0,.5.5,1.1.7.3,0,.5,0,.6-.2,0-.2,0-.4-.7-.9-.9-.7-1.2-1.4-1-2.2s1.1-1.4,2.5-1c.8.2,1.3.6,1.5.9.1.1.1.3,0,.4l-.5.6c-.1.1-.3,0-.4,0,0,0-.5-.5-1-.6-.3-.1-.5,0-.5.2s.1.4.6.8c.9.7,1.5,1.4,1.2,2.4-.3.9-1.3,1.4-2.6,1-.9-.3-1.4-.7-1.6-1v-.3"/>
    <path class="cls-26" d="M1201.5,158.8c-3.4,26-35.9,43.2-72.6,38.4-36.8-4.8-63.8-29.7-60.5-55.6,3.4-26,35.9-43.2,72.6-38.4s63.8,29.7,60.5,55.6h0Z"/>
    <path class="cls-24" d="M1327,174.4c0-246.5-299.3-219-357-132.2-57.7,86.8-38,148.7-39.8,176.3s-37.1,45.6-37.1,45.6c-29.9,7.6,20.4,45.1,20.4,45.1-4.2,9.9-14,20.1,0,24.9,9.2,3.2,18.4,6.3,27.7,9.5,2.4.8,9.4,4.5,9.9,8.1.5,3.5-12.7,10.1-12.7,10.1-4.5,3.5-7.8,3.5-11,8.3-2.2,3.3,2.9,4.6,6.8,9.4,3.1,3.8,16.3,21,26.3,30.8,8.8,8.5,23.1,17.3,30.2,19.9,5.6,2,18.9,3.1,24.6-.8,3.2-2.2,5.7-6.1,8.3-9,4.8-5.2,13.8-15.7,22-13.8,8.2,1.9,0,10.7-1.9,25.6-3,22.6-1.5,54.7,1.3,56.6,3.1,2.3,188.5-.4,194.9-1-3.6-10-4.4-21.3-5.6-31.8-1.3-11.3-1.7-22.8-1.5-34.2.3-17.4,1.9-34.7,4.7-51.8.5-3.2,1-6.4,1.7-9.6,0,0,88-46.5,88-186.1M960.3,255.4c-4.8,0-8.7-9-8.7-20.2s3.9-20.2,8.7-20.2,8.7,9,8.7,20.2-3.9,20.2-8.7,20.2M1086,278.1c-85.5-37.8-129.1-126.7-97.3-198.6,31.8-71.9,126.8-99.4,212.3-61.7,85.5,37.8,129.1,126.7,97.3,198.6s-126.8,99.5-212.3,61.7h0Z"/>
  </g>
  <text class="cls-17" transform="translate(1081.1 160.7) rotate(3.8)"><tspan x="0" y="0">かなやん</tspan></text>
  <text class="cls-23" transform="translate(1030.6 58.9) rotate(-23.3)"><tspan x="0" y="0">かなり</tspan><tspan x="-13" y="31.2">ヤンキー</tspan><tspan x="-13" y="62.5">ではない</tspan></text>
  <text class="cls-22" transform="translate(1106.1 27.3) rotate(14.4)"><tspan x="0" y="0">えいぞう</tspan></text>
  <text class="cls-22" transform="translate(1131 72.3) rotate(3.8)"><tspan x="0" y="0">ウェブ</tspan></text>
  <text class="cls-22" transform="translate(1133.1 98.7) rotate(3.8)"><tspan x="0" y="0">デザイン</tspan></text>
  <text class="cls-8" transform="translate(1207.3 66.3) rotate(35.2)"><tspan x="0" y="0">サービスも</tspan></text>
  <text class="cls-8" transform="translate(1196.2 125.6) rotate(4.4)"><tspan x="0" y="0">コーラ</tspan></text>
  <text class="cls-1" transform="translate(1207.2 147.4) rotate(4.4)"><tspan x="0" y="0">きょうと</tspan></text>
  <text class="cls-1" transform="translate(1218 171.8) rotate(4.4)"><tspan x="0" y="0">イラレ</tspan><tspan x="-21.6" y="25.9">ブレンダー</tspan></text>
  <text class="cls-1" transform="translate(1173.8 218.2) rotate(4.4)"><tspan x="0" y="0">オムライス</tspan></text>
  <text class="cls-7" transform="translate(1119.2 221.5) rotate(-11.5)"><tspan x="0" y="0">くま</tspan><tspan x="-16" y="19.2">ぷーさん</tspan></text>
  <text class="cls-3" transform="translate(1069.2 269.9) rotate(-11.5)"><tspan x="0" y="0">えいぞう</tspan></text>
  <text class="cls-19" transform="translate(1087.8 279.4) rotate(-11.5)"><tspan x="0" y="0">えいぞう</tspan></text>
  <text class="cls-6" transform="translate(1100.8 285.7) rotate(-11.5)"><tspan x="0" y="0">えいぞう</tspan></text>
  <text class="cls-18" transform="translate(1115.2 289.7) rotate(-11.5)"><tspan x="0" y="0">えいぞう</tspan></text>
  <text class="cls-21" transform="translate(1128.6 291.8) rotate(-11.5)"><tspan x="0" y="0">えいぞう</tspan></text>
  <text class="cls-5" transform="translate(1010.7 106.6) rotate(-70.9)"><tspan x="0" y="0">すし</tspan></text>
  <text class="cls-9" transform="translate(982.5 119.7) rotate(11.3)"><tspan x="0" y="0">なんでも</tspan><tspan x="0" y="25.4">やる　　</tspan></text>
  <text class="cls-12" transform="translate(981 166) rotate(11.3)"><tspan x="0" y="0">おんがく</tspan></text>
  <text class="cls-13" transform="translate(1022.1 142.2) rotate(36.1)"><tspan x="0" y="0">ミセス</tspan></text>
  <text class="cls-14" transform="translate(1191.6 242.9) rotate(6.1)"><tspan x="0" y="0">そしな</tspan></text>
  <text class="cls-14" transform="translate(1174.4 264.5) rotate(6.1)"><tspan x="0" y="0">そしな</tspan></text>
  <text class="cls-14" transform="translate(1136.3 284.3) rotate(6.1)"><tspan x="0" y="0">そしな</tspan></text>
  <text class="cls-11" transform="translate(1159.8 267.4) rotate(-45.8)"><tspan x="0" y="0">あの</tspan></text>
  <text class="cls-16" transform="translate(995.1 195.5) rotate(-18.1)"><tspan x="0" y="0">いませ</tspan></text>
  <text class="cls-15" transform="translate(1007.9 213.8) rotate(-33.2)"><tspan x="0" y="0">おおさか</tspan><tspan x="0" y="16.7">きんよう</tspan></text>
  <text class="cls-4" transform="translate(1029.2 236.5) rotate(-33.2)"><tspan x="0" y="0">ポートフォリオ</tspan><tspan x="5.7" y="13.6">みてね　　　</tspan></text>
  <text class="cls-2" transform="translate(1047.6 241.8) rotate(-33.2)"><tspan x="0" y="0">　　　ブレンダー</tspan><tspan x="-4.7" y="11.2">アフターエフェクツ</tspan><tspan x="0" y="22.4">スクールカップ　</tspan></text>
  <text class="cls-10" transform="translate(1029.3 88.8) rotate(107.9)"><tspan x="0" y="0">がっしー</tspan><tspan x="-2.9" y="6.9">ありがとう</tspan></text>
</svg>